<svg xmlns="http://www.w3.org/2000/svg" viewBox="0 0 1040 1040"><g fill="#00a" stroke-width="0"><path d="M529.5 158c.3.5.1 1-.5 1s-.8.5-.4 1.2c.5.8 0 .7-1.1-.2-1-.8-1.6-1-1.2-.4.6 1.1-1.2 2.4-2.9 2.3-.4 0-1 .5-1.5 1.3-.5.7-1.4 1.3-2.1 1.3-.7.1-1.2.6-1.1 1.3.2.6-.6 1.6-1.7 2.2s-2 .8-2 .5-.6 0-1.4.7-1.2 1.6-1 1.9c.2.4-.8 1.5-2.2 2.4-1.8 1.1-2.4 1.3-1.9.4.5-.8-2.5 2-6.6 6.2s-8.5 8.5-9.9 9.5c-3 2.3-7.1 7.1-5.1 5.9 1-.5 1.2-.4.7.3-.4.7-1.4 1.2-2.2 1.2s-1.4.4-1.4 1-.6.9-1.2.8c-.7-.2-1.2.3-1 1 .1.8-.1 1.1-.6.8s-2 .7-3.3 2.2c-2 2.2-2 2.4-.3 1.2 1.1-.8.5-.1-1.3 1.6s-3.3 3.6-3.3 4.1c0 .6-.8 1.7-1.7 2.4-1.4 1.2-1.6 1.2-.8 0 .5-1 .4-1.2-.4-.7-.6.4-.9 1.1-.6 1.6s0 1.2-.6 1.5c-.5.4-.8 1.4-.4 2.2.4 1.2.2 1.3-.7.5-.9-.7-1.7-.6-2.6.4-.7.8-1 1.4-.7 1.4s-.2 1.1-1.1 2.5-2.1 2.2-2.7 1.8c-.5-.3-.7-.1-.3.5.3.6-.8 2-2.4 3.2-2.4 1.7-2.8 2.5-2 3.5.9 1 .7 1.6-.8 2.4-1.1.6-2.3.7-2.7.3-.3-.4-.5-.2-.3.4s-.6 2-1.7 3c-1.2 1.1-1.4 1.5-.5.9.8-.5-.9 1.5-3.7 4.4-2.9 3-5.3 5.8-5.3 6.3s-.4.6-1 .3c-.5-.3-1-.1-1 .5s-.4.8-1 .5c-.5-.3-1-.2-1 .4s-.6.8-1.3.5c-.8-.3-2.2.6-3.2 2-1.6 2-2.2 2.3-3.4 1.3s-1.3-.9-.7.2c.6.9.5 1.2-.5.9-.8-.3-2 .2-2.7 1.1-.8.9-1 1-.7.3.6-1.1.3-1.1-1.4 0-1.2.7-2.1 1.6-2.1 2.1 0 .4-.4.5-1 .2-.5-.3-1-.1-1 .6s-.3 1-.6.7-1.7.5-3.1 1.8c-1.5 1.4-3.2 2.2-4 2-.7-.3-1.7.3-2.2 1.2-.6.9-1.1 1.3-1.1.8 0-.6-.7-.1-1.6 1-.8 1-1.3 1.2-.9.4s-.3-.4-1.5 1-1.9 1.8-1.5 1c.4-1 .2-.9-.8.2-.8 1-1.8 1.4-2.3 1-.4-.4-.2.2.6 1.2 1 1.4 1.1 1.7.2 1.2-.7-.4-2-.2-2.9.6-1.4 1.1-1.6 1.1-.9-.2.5-.8-.3-.2-1.8 1.5-1.4 1.6-2.5 3.4-2.6 3.9 0 .5-.6.3-1.4-.3-1.1-.9-1.6-.9-2.2 0-.5.8-.3 1 .7.4 1.6-.9.9-.2-3.6 3.5-2.2 1.9-2.6 2-1.5.5 1.4-1.9 1.4-1.9-.3-.6-1 .8-1.6 2-1.3 2.7q.45 1.2-1.5.9c-1.1-.2-1.7 0-1.4.5s-.4 1.4-1.5 2c-1.2.6-1.8 1.6-1.3 2.3.5.8.2.8-.9-.1-1.3-1-2.2-.4-6.2 4.3-2.6 3-5 5.4-5.4 5.4-1.9-.3-2.3.2-1.3 1.5.9 1 .7 1.7-.6 2.7-1.7 1.3-1.7 1.3-.3-.6.8-1.1-.5-.2-2.8 2-4.7 4.3-5.8 6.2-1.4 2.4l2.7-2.4-2.4 2.7c-1.3 1.5-2.9 2.4-3.7 2.1s-1.4.1-1.4 1c0 .8-.9 1.7-2.1 2s-1.8 1-1.5 1.6c.3.5-.8 1.9-2.5 3.1-1.6 1.2-2.8 2.8-2.5 3.5.3.8-.3 1.9-1.2 2.7-1.3 1.1-1.4 1.1-.7-.1.5-.9.4-1.2-.3-.7-.6.4-.9 1.3-.6 2 .3.8-.5 2.2-1.8 3.2-1.3 1.1-2.9 3.1-3.7 4.6s-1.8 2.5-2.3 2.2-.8-.2-.7.3c.4 2.1-.2 3.4-1.3 2.7-.7-.4-.8-.3-.4.4.4.6-.1 1.9-1.1 2.9s-1.8 2.5-1.8 3.3-.5 1.4-1.2 1.3c-.8-.2-1 .4-.6 1.4.5 1.2.3 1.4-.7.8-.8-.5-1.1-.4-.7.2.3.5-.5 2.6-1.8 4.6-3.2 4.7-3.3 8-.2 7.5 1.2-.2 2.1-.8 2-1.4s1.1-1 2.7-.9c1.7.1 2.7-.2 2.3-.8s.1-.8 1.1-.4c.9.4 1.5.3 1.2-.2-.7-1 2.2-2.4 3.4-1.6.4.3 1-.2 1.3-.9.3-.8 1.8-1.4 3.4-1.4 1.5.1 4.7-.9 7.1-2.1 4.3-2.2 4.3-2.2 3.2-.2-.6 1.2-1.5 2.1-2.1 2.1s-.7.5-.3 1.2c.4.6.3.8-.3.5-1-.6-3.1 1-3.2 2.3 0 1.6-1.4 3.9-2.1 3.5-.4-.3-1.3.2-1.9.9-.9 1.1-.9 1.6 0 2.2.8.5.9.3.4-.6-.6-.9-.4-1.1.5-.5s1.1.4.5-.5-.4-1.1.4-.6c.9.6.8 1.3-.6 2.9-1 1.2-2 2.4-2.2 2.7s-.1-.3.2-1.3c.6-1.6.5-1.6-1.8-.1-2.5 1.6-3.6 3.2-1.2 1.8.9-.6.9-.5 0 .8-.7.8-1 1.8-.6 2.1.3.4.1.7-.6.7s-.9.5-.5 1.2c.5.8 0 .7-1.1-.2s-1.6-1-1.1-.2c.4.7.1 1.5-.8 1.8s-1.4 1-1.1 1.4c.3.5-.3 1.3-1.2 1.9-1 .5-1.8 1.8-1.8 2.8s-.6 1.7-1.3 1.5c-.8-.1-1.1.2-.7.8.3.5-.1 1.3-1 1.6-1.3.5-1.3.9-.3 2.2 1 1.2 1 1.4.1.8-.8-.4-1.3-.2-1.3.4s-.4.8-1 .5c-.6-.4-.7.1-.3 1.1.5 1.3.3 1.5-.7.9-.7-.5-1.1-.4-.8.1.9 1.4-1 5.6-2.2 4.9-.6-.4-.7.1-.3 1.1.4 1.2.3 1.5-.5 1s-1-.2-.6.8c.4.9 0 1.8-.9 2.2-.9.3-1.3 1.2-1 2 .3.7-.2 1.7-1.1 2s-1.3 1-1 1.5 0 .9-.6.9-.9.4-.6.9c.8 1.2-.4 4.2-1.4 3.6-.4-.3-.8.1-.7.8.1 3.2-.4 4.8-1.3 4.2-.6-.4-.7.1-.3 1.1.4 1.1.3 1.5-.4 1.1-.7-.5-.9.1-.5 1.5.3 1.4.1 1.9-.6 1.4-.8-.5-1-.2-.6.8.3.9.1 1.6-.5 1.6s-.8.7-.5 1.5c.4.8.2 1.5-.4 1.5s-.8 1-.4 2.2c.3 1.3.1 1.9-.5 1.5s-.8.4-.5 2 .1 2.4-.5 2-.8.4-.5 2c.3 1.8.1 2.4-.6 1.9-.8-.5-1 .2-.5 2.5.5 2.4.3 3-.7 2.4-.9-.6-1.1 0-.5 2.4.4 1.9.3 3.1-.4 3.1-.6 0-1 1.7-1 3.7 0 2.1-.2 7.2-.4 11.3-.3 4.1-.2 9.8 0 12.6.5 4.4.8 5.1 2.4 4.7 1-.3 1.6-.9 1.3-1.4s0-.9.6-.9.9-.4.6-.8c-.7-1.1 4.7-9.2 8.1-12.1 1.6-1.3 2.2-2 1.5-1.6-1.1.6-1.1.3 0-1.6 1.5-2.7 4-4.9 4.9-4.4.3.2 2.6-1.7 5-4.3l4.4-4.7-5 4.5-5 4.5 4.4-4.7c2.4-2.6 4.8-4.5 5.2-4.2.4.2 1.5-.6 2.3-1.8 1.9-2.7 2-1.2.2 2.1-.8 1.4-1.1 3.2-.8 4s.1 1.2-.5.8c-.7-.5-.9 0-.6 1.3.3 1.2-.1 2.2-1.1 2.6-.9.3-1.4 1-1.1 1.4.7 1.1-.5 4.1-1.4 3.5-.4-.2-.7 1.1-.6 2.9 0 2.2-.3 3.2-1.1 2.9-.7-.2-1.2.2-1.1.9.1 3.1-.4 4.9-1.2 4.4-.5-.4-.7.4-.3 1.6.3 1.3.1 1.9-.5 1.5s-.8.4-.5 2c.3 1.7.1 2.4-.6 1.9-.6-.4-.8.2-.5 1.4.3 1.1 0 2-.6 2-.7 0-.9.9-.5 2.5s.2 2.5-.6 2.5c-.7 0-1 .7-.6 1.5.3.8.1 1.5-.4 1.5-1.5 0-1.2 1.6.3 1.9 1.6.4 35.1 1.3 44 1.2 4.7 0 6.6.3 6.1 1.1-.5.7.4.9 2.9.4 2.2-.4 3.8-.2 4.2.5.5.6 2 .8 4.1.4 2-.3 3.4-.2 3.4.4s1.5.7 3.7.4c2.6-.5 3.4-.3 2.9.6-.6.8-.1 1 1.8.5 1.7-.4 2.6-.2 2.6.5s1 .9 2.6.5c2-.5 2.5-.4 2 .5-.6.8 0 1 1.8.5 1.5-.3 2.6-.2 2.6.4s.9.8 2 .5 2-.1 2 .5 1 .8 2.2.4c1.6-.4 1.9-.2 1.3.8s-.4 1.2.8.7c.9-.3 1.9-.2 2.2.2.3.5 1.4.7 2.5.4s2 0 2 .6c0 .5.7.8 1.5.5.8-.4 1.5-.2 1.5.4s1 .8 2.2.4c1.3-.3 1.9-.1 1.5.5-.5.7.1.9 1.5.5 1.3-.3 1.9-.1 1.5.5s.2 1.3 1.3 1.6 1.8.1 1.5-.3.4-.6 1.5-.3 1.7.9 1.4 1.4.1.6.9.3 2.1.1 2.8.9c.8.7 2 1.2 2.7.9.6-.2 1.2.1 1.2.7s.7.8 1.5.5c.8-.4 1.5-.1 1.5.5s.7.8 1.5.5c.9-.4 1.8.1 2.1 1.1.4.9 1.3 1.4 2 1.1.8-.3 1.4-.1 1.4.4s.7.6 1.7.3c1.2-.5 1.4-.3.8.7s-.4 1.2.8.7c1-.3 1.7-.2 1.7.4s.5.7 1 .4c.6-.3 1-.1 1 .5s.5.8 1 .5c.6-.3 1-.1 1 .5s.4.9.9.6c1.3-.8 4.2.4 3.5 1.5-.3.5.1.6.9.3s2.1.2 3 1c.8.8 1.7 1.2 2.1.9.3-.4.6 0 .6.7s.3 1 .7.7c.3-.4 1.2.1 2 1.1 1 1.1 1.2 1.2.8.2s-.2-.9.8.2c.8 1 1.7 1.5 2 1.1.4-.3.7-.1.7.6s.4.9 1 .6 1-.1 1 .5.5.8 1 .5c.6-.3 1-.1 1 .5s.5.8 1.2.4c.6-.4 1.7.1 2.5 1.1.7 1.1 1.3 1.6 1.3 1.2s.9.2 2 1.3c1.2 1.2 2.5 1.8 3 1.5.6-.4 1-.1 1 .5s.5.8 1 .5c.6-.3 1.3.1 1.6.9.3.9 1 1.3 1.5 1s.9 0 .9.5c0 .6.7 1.1 1.5 1.1s1.5.5 1.5 1.1c0 .5.4.7 1 .4s1-.2 1 .4c0 1 10.1 7.6 11.3 7.3.4-.1.7.2.7.6 0 .5 2.1 2.3 4.7 4.1 5.2 3.7 6.3 3.5 12.5-2.2 1.8-1.7 3.5-3.2 3.8-3.2 1.4-.2 8.9-5.8 9.4-7.1.3-.8 1.2-1.4 2.1-1.4 1.3 0 8.8-4.3 10.5-6 .3-.3 3.4-2 7-3.9s7.2-4 8-4.6c.8-.7 2.6-1.6 4-2s5.2-2.1 8.5-3.8 6.2-3.1 6.5-3.2c.3 0 5.2-1.9 11-4.2s14.5-5.3 19.3-6.7c12.5-3.6 12.9-4 8.5-7.4-1.4-1.2-1.6-1-1.1.9.4 1.6.3 2-.6 1.5-.8-.5-1-1.9-.6-3.6s.2-3.1-.6-3.6c-.8-.4-.9-.3-.5.4.4.8.2 1-.8.6-.8-.3-1.3-1.4-1.1-2.5s0-1.7-.6-1.4c-.8.6-1.3-.8-1-2.8 0-.4-.3-.7-.9-.7-1.3 0-5.2-7.8-4.5-9 .3-.6.1-1-.5-1-.7 0-.9-.7-.6-1.6.4-1 .2-1.3-.6-.8s-.9.2-.5-.9c.4-1 .2-1.7-.4-1.7s-.9-.9-.6-2c.3-1.2.1-1.8-.5-1.4-.7.5-.9-.4-.6-2.4.2-1.7.1-2.9-.4-2.6-.4.3-.7-2.8-.6-6.8l.3-7.3-3-.1c-2.9-.2-2.9-.2-.2.3 1.5.2 2.7.8 2.7 1.3 0 1-13.5.7-16.5-.4-2-.8-2-.8 0 .8 1.8 1.6 1.8 1.6-1.5.9-3.7-.8-5.2-.8-11.2 0-2.8.3-3.5.1-3.1-1 .3-.8.8-1.2 1-.9.3.2 1.4-.5 2.5-1.6s2.6-1.7 3.4-1.4 1.4.1 1.4-.5.4-.8.9-.4c.5.3 1.2.1 1.6-.5s1.1-.8 1.6-.5c.5.4.9.2.9-.4s.7-.8 1.5-.5c.8.4 1.5.1 1.5-.5s.7-.8 1.7-.4c1.1.4 1.4.3.9-.6-.6-.9 0-1 2-.5 2.1.5 2.5.4 1.9-.6s-.2-1.1 1.9-.6c1.7.4 2.5.3 2.2-.3-.3-.5.3-.7 1.4-.4s2.7 0 3.5-.7c.8-.6 2.3-.9 3.5-.5 1.1.3 2 .2 2-.3s1.8-.7 4.1-.5c2.2.2 4.6 0 5.2-.5.7-.5 9.3-.9 19.2-1 9.9 0 16.9.3 15.5.8-1.4.4 3.5.7 11.5.8 8.1 0 14.5-.4 15.2-1 .7-.5 1.7-.7 2.3-.3.5.3 1 .1 1-.5s.5-.8 1-.5c.6.3 1 .2 1-.4s1-1.5 2.1-2.2c1.7-.9 2-.8 1.4.3-.3.7.1.4.9-.6.9-1.1 1.6-1.7 1.6-1.4s3.6-2.9 8.1-7.2c4.4-4.3 8.4-8 8.7-8.2.4-.2.6-.6.4-1.1-.1-.4.3-.6 1-.5.7.2 1.2-.3 1.3-1 0-.7 1.1-2.2 2.5-3.3 1.4-1.2 1.8-1.8 1-1.4s-.4-.2.9-1.3c1.4-1.1 2.6-2.8 2.7-3.7.1-1 .8-2.3 1.5-2.9.9-.8 1-.8.4.3-.5.9-.4 1.2.3.8.5-.4.9-1.8.7-3.2-.2-2.2 0-2.3 1.3-1.3 1 .8 1.3.9.9.2s-.1-1.4.7-1.7 1.2-1.6 1.1-3.2c-.3-2.2-.1-2.4 1.1-1.4s1.3.9.8-.6c-.5-1.1-.3-1.6.2-1.2.6.3 1.6-.3 2.3-1.5 1-1.6 1-1.9-.1-1.3-.8.4-.7.1.2-.7.8-.7 1.7-2.2 1.8-3.3.6-2.9 4.1-9.5 5.2-9.5.5 0 .7-.7.4-1.5-.4-.8-.1-1.5.4-1.5.7 0 .8-1 .2-3-.5-1.9-.5-2.8.1-2.5.5.4.9.4.9.1s-1-1-2.1-1.7c-1.7-.9-2-.8-1.4.3.4.7-.2.3-1.4-1-1.2-1.2-2.6-2-3.2-1.7-.5.4-.9.2-.9-.4s-.7-.7-1.7-.4c-1.2.5-1.4.3-.8-.8.8-1.2.6-1.2-.8 0-1 .8-2 1.1-2.4.7-.3-.3-.1-.6.5-.6.7 0 1.2-.4 1.2-1 0-.5-.7-.7-1.5-.4-.8.4-1.7-.1-2.1-.9-.3-.9-1.1-1.4-1.8-1.1-.6.2-2.1-.3-3.1-1.3-1.1-1-2.6-1.8-3.2-1.9-3-.2-3.4-.5-2.8-1.4.4-.6-.1-.7-1.1-.3-1.2.4-1.5.3-1-.5.4-.8.2-1-.7-.6-.8.3-2.1-.1-2.8-.8-.8-.7-2-1.4-2.8-1.6-.7-.1-2-.9-2.7-1.7-.8-.8-2.1-1.2-2.9-.9-.8.4-1.8-.1-2.1-1s-1-1.3-1.5-1-.9 0-.9-.6-.4-.8-1-.5c-.5.3-1 .2-1-.4s-.7-.8-1.5-.5c-.8.4-1.7-.1-2.1-1-.5-1.3-1-1.4-2.7-.4-2.1 1.1-2.1 1-.7-.7.9-1.1 1-1.6.3-1.1-.7.4-1.3.2-1.3-.4 0-.7-.7-.7-2.2.1-2.1 1.1-2.2 1.1-.9-.5 1.2-1.4 1.2-1.6-.3-1-1 .4-1.8 0-2.2-1-.5-1.3-.9-1.4-2-.5-1.2 1-1.3.8-.8-.6.5-1.3.4-1.6-.4-1.1-.7.4-1.2.2-1.2-.4s-.4-.8-1-.5c-.5.3-1 .1-1-.4 0-.6-.3-1-.7-1-1.9.3-3.4-.2-2.9-1 .3-.4-.6-1.3-2-2-1.4-.6-2.3-.7-1.9-.2.3.5.1 1.3-.5 1.6-.6.4-1 .3-.9-.2.3-2-.2-3.4-1.1-2.8-.5.3-1 .1-1-.5s-.4-.8-1-.5c-.5.3-1 .2-1-.3s-1.2-1.7-2.6-2.7c-1.8-1.2-2.4-1.3-1.9-.4.4.8-.3.3-1.5-1.1s-1.8-1.8-1.4-1-.5.4-1.9-.9c-1.5-1.3-2.4-2.8-2.1-3.2.3-.5.1-.9-.5-.9s-.8-.7-.5-1.5c.4-.8.2-1.5-.4-1.5s-.8-.9-.5-2c.3-1.2 0-2-.7-2s-.9-.8-.5-2 .2-2-.6-2-1-1.1-.6-3.5c.4-2.1.2-3.5-.5-3.5-.6 0-.8-1-.4-2.5.4-1.6.2-2.5-.5-2.5-.6 0-.9-.7-.5-1.5.3-.8 0-1.5-.6-1.5s-.9-.3-.5-.6c.3-.4-.2-1.4-1.1-2.3-1.1-.9-1.2-1.2-.3-.6.9.5-.7-1.4-3.4-4.2-4.8-5.1-6.3-6.3-5.1-4.4.7 1.1-2.1.8-3.1-.4-.4-.4-.2-.5.5-.1 1.8 1.1 1.5-.9-.5-2.5-.9-.8-1.4-.9-1-.3.3.6 0 1.1-.8 1.1s-1.2-.3-1-.7-.3-1.6-1.1-2.6c-.9-1-1.3-1.4-1-.7.4.6.1 1.5-.6 1.9s-1 .4-.6-.1c.9-1-1-4.7-2.1-4-.5.3-1.2-.2-1.5-1.1-.3-.8-1-1.2-1.6-.9-.5.3-1 .2-1-.4 0-1.1-6-4.7-7.2-4.3-.5.1-.8-.3-.8-.9 0-.5-.4-.7-1-.4-.5.3-1 .1-1-.5s-.4-.8-1-.5c-.5.3-1 .2-1-.4s-1.4-1.8-3.1-2.7c-2.3-1.1-2.9-1.2-2.4-.2.3.7 0 .5-.8-.4-.8-1-1.7-1.5-2-1.1-.4.3-.7.1-.7-.6s-.4-.9-1-.6c-.5.3-1 .1-1-.5s-.4-.8-1-.5c-.5.3-1 .1-1-.5s-.5-.8-1-.5c-.6.4-.8 1.1-.5 1.6.4.5-.2.6-1.1.2-1.1-.4-1.3-.8-.6-1.1.7-.2 1.2-.8 1.2-1.3 0-.6-.4-.7-1-.4-.5.3-1 .1-1-.6s-.3-1-.6-.6c-.4.3-1.3 0-2.1-.8-1.1-1.1-1.9-1.2-3.3-.5-1.7.9-1.8.8-1.3-.7.6-1.6.5-1.7-1.3-.3-1 .8-1.6 1.1-1.2.6.8-1-1.4-3.6-2.4-2.9-.5.2-.8 0-.8-.6s-.7-.7-1.7-.4c-1.1.4-1.4.3-.9-.5.4-.8.2-1-.7-.6-.8.3-2.1-.1-2.8-.9-.8-.7-2-1.2-2.8-.9-.9.3-1.1 0-.6-.8.6-1 .4-1.2-.8-.7-1 .3-1.7.2-1.7-.4s-.5-.7-1.1-.4c-.5.4-1.9-.1-2.9-1-1.6-1.5-2.2-1.6-3.5-.5s-1.4 1-1-.2c.4-.9-.1-1.8-.9-2.1-.9-.4-1.6-1.6-1.6-2.7s-.4-2-1-2c-.5 0-.6-.7-.3-1.7.5-1.2.3-1.4-.7-.8s-1.2.1-.7-2.3c.4-2 .2-3.2-.4-3.2s-.9-.9-.6-2c.3-1.2.1-1.8-.5-1.4-.7.5-.9-.4-.6-2.5.2-1.7 0-3.1-.5-3.1s-.7-1.1-.5-2.5c.3-1.4.1-2.2-.5-1.8-.6.3-.8-.6-.5-2.5.3-1.8 0-2.9-.5-2.5-.6.3-.8-.7-.5-2.6.2-1.7.1-3.1-.4-3.1s-.6-1.2-.2-2.8c.6-2.6.6-2.6-1-.7-1.5 1.9-1.6 1.9-.6-.8 1.4-4.1 1.2-5.6-.5-2.7s-2 1.3-.5-2.6c.8-2 .8-2.9-.1-3.5-.7-.4-.9-1.4-.6-2.4.5-1 .3-1.4-.5-.9s-.9-.1-.4-2.1c.6-2.5.5-2.7-.9-1.5s-1.5 1-.6-1.4c.6-1.4.7-2.6.3-2.6-1.2 0-4.2-10.1-3.5-11.4.4-.6-.2-.4-1.2.4s-1.6 1-1.2.4c1.3-2.2-.4-7.1-3-8.3-1.4-.7-2.2-.7-1.8-.1m-11.6 36.6c-.5 2.7-.5 6.3.1 8.7 1.2 5.1 1.3 13.7.2 13.7-.5 0-.8-2-.7-4.5 0-2.5-.3-5.1-.7-5.8s-.8 2.5-.8 7.1c0 5.7.3 8.1 1.1 7.7.6-.4.8-1.4.5-2.2s-.1-1.1.5-.8c.5.4.8 1.4.5 2.3-.2 1-.7 3.5-1.1 5.7-.8 4.6.3 4.2 1.6-.7.8-3.2.9-3.2.5.7-.2 2.2-.7 4.9-1.1 6-.7 2-.6 2 .9.1 1.8-2.3 2-1.8.6 1.9-.7 1.9-.7 2.4.2 1.9.8-.5.9-.2.5.9-.7 1.9.9 2.3 1.6.4.3-.6.3.3 0 2-.4 2.2-.1 3.3.6 3.3s1 .4.6 1c-.3.5.6 1.7 2 2.6l2.6 1.7-2.4 1.6c-1.3.9-3.2 2.4-4.1 3.4-1 .9-2.1 1.5-2.6 1.2-.4-.3-1 .1-1.3.9s-1.6 1.6-2.9 1.8-2.2.8-2.1 1.5c.3 1.3-4.5 2.4-5.3 1.1-.3-.4-1-.6-1.5-.2-.6.3-.9 0-.8-.7.4-2.1-2.3-9.9-3.2-9.4-.4.3-.9-.1-1.2-.7-.2-.7-.7 2.7-1.1 7.7-.4 4.9-1 9.7-1.3 10.5-.4.8-.7 1.8-.8 2.2-.2.5-.4 1.1-.5 1.5-.1.5-.1 1.2 0 1.8.1.5-.2.7-.6.2-.4-.4-1.9.3-3.3 1.5-1.6 1.4-1.2.7.9-1.7l3.5-4-4.7 4.4c-2.6 2.4-4.6 4.9-4.5 5.5.1.5-.3 1-1 1.1-.6 0-1.5.3-1.9.7-1.8 1.9-2.2.2-2.2-9.7-.1-7.1.3-10.3 1-9.9s.8-.4.3-2.5c-.4-2-.3-3.1.4-3.1s.9-1 .5-2.6c-.5-2-.4-2.5.5-2 .9.6 1 0 .5-2-.5-1.8-.3-2.5.4-2 .6.4.8-.2.5-1.4-.3-1.1 0-2 .6-2 .5 0 .8-.7.5-1.5-.4-.8-.1-1.5.5-1.5s.8-.7.5-1.5c-.4-.8-.2-1.5.4-1.5.5 0 1-.6.9-1.3-.1-3.2.4-4.8 1.3-4.2.5.3.7 0 .4-.8s.1-2.1.8-2.8c.7-.8 1.3-2 1.4-2.7.2-2.9.5-3.3 1.4-2.7.6.4.7-.1.3-1.1-.5-1.3-.3-1.5.7-.9.8.5 1.1.4.7-.3-.9-1.4.3-4.3 1.4-3.6.5.3.6-.3.2-1.2-.5-1.3-.3-1.5.8-.9 1.2.7 1.2.6.1-.7-1-1.3-1-1.7.3-2.2q1.65-.6.9.6c-.4.7-.3.8.5.4.6-.4.9-1.2.6-1.7-.7-1.1 2.7-6.4 6.4-9.9 1.5-1.4 2-2.1 1.2-1.5-.8.5-.4-.5.9-2.3 2.4-3.3 3.6-4.2 2.5-2-.3.7.7-.2 2.2-1.9 1.5-1.8 2.9-3.3 2.9-3.3.1 0-.2 2.1-.7 4.6m86.5 67c.3.8.2 1.2-.4.9s-1-1-1-1.6c0-1.4.7-1.1 1.4.7m-122.7 13.6c-.2 1.3-.4.3-.4-2.2s.2-3.5.4-2.3c.2 1.3.2 3.3 0 4.5M375 290.4c0 .2-.8 1-1.7 1.7-1.6 1.3-1.7 1.2-.4-.4s2.1-2.1 2.1-1.3M574 301c-1 .8.4.9 4.8.4 4.5-.5 6.2-.3 6.2.6 0 .8 1 .9 3.1.5 2.2-.5 2.9-.4 2.4.4-.4.8.2 1 1.9.7 1.4-.3 2.6 0 2.6.6 0 .5.7.8 1.5.4.8-.3 1.5-.2 1.5.3 0 .4 1 .7 2.3.7 1.3-.1 2.1.4 1.9 1.2-.1.8.2 1.1.8.7.5-.3 2.7 1.1 4.8 3.2 2.9 2.9 3 3.2.7 1.3-1.7-1.4-.4.2 2.9 3.4 3.4 3.3 5.4 5.6 4.6 5.2-.8-.5-.1.4 1.5 1.9 1.7 1.4 2.3 2.4 1.5 2s-.3.3 1.3 1.5c1.5 1.2 2.5 2.6 2.2 3-.3.5.3.7 1.5.5 2.3-.4 3.6 1 1.8 2.1-.8.5-.6 1 .8 1.4 1 .4 1.9 1.3 1.9 2.1s.7 1.4 1.5 1.5c3.6.2 4.1.5 3.4 1.6-.5.8-.2.9.9.5 1-.3 1.7-.2 1.7.3s.7.6 1.7.3c1.1-.4 1.4-.3.9.5s-.2 1 .8.6c.9-.3 1.6-.1 1.6.6 0 .6.4.9.9.6 1.4-.9 4.2.5 3.5 1.6-.4.6.3.5 1.5-.1 1.7-1 2-.9 1.5.4-.5 1.1-.2 1.3 1 .9.9-.3 1.6-.1 1.6.6 0 .6.5.8 1 .5.6-.3 1-.2 1 .4s.7.7 1.7.4c1.1-.4 1.4-.3.9.5s-.2 1 .8.6c.9-.3 1.6-.1 1.6.5s.6.8 1.4.5c.7-.3 2 .1 2.7.9.8.7 2 1.2 2.8.9.9-.3 1.1 0 .6.8-.6 1-.4 1.2.8.7.9-.3 1.7-.1 1.9.4.2.6 1.7 1.2 3.3 1.3 1.6.2 3.1.8 3.3 1.4s1 .8 1.9.5c1.2-.5 1.4-.3.8.7s-.4 1.2.8.7c1-.3 1.7-.2 1.7.3s.7.6 1.7.3c1.1-.4 1.4-.3.9.5s-.2 1 .8.6c.9-.3 1.6-.1 1.6.5 0 .9.6.9 2.3 0 2-1.1 2.1-1.1.8.5-1.2 1.4-1.2 1.6.3 1 .9-.3 1.6-.1 1.6.6 0 .6.5.8 1 .5.6-.3 1-.1 1 .5s.4.9.9.6c1.4-.9 4.2.5 3.4 1.7-.4.6 0 .8 1 .4 1-.3 1.7-.2 1.7.4s.4.7 1 .4c.5-.3.9 1.3.8 3.9 0 2.5-.3 4.4-.7 4.2-.4-.3-.6 1.3-.6 3.4s.4 3.6.9 3.3c.5-.4.7.3.4 1.5-.4 1.4-.2 2 .5 1.5.7-.4.8 0 .4 1.1-.4 1-.3 1.5.3 1.1.5-.3 1.8.7 2.7 2.3 1.2 1.9 2.5 2.8 4 2.7s1.9.3 1.5 1.4c-.3.9-.2 1.3.2.9.5-.4 1.8.2 3 1.4 1.4 1.3 1.7 2.2.9 2.5-.7.2-.9 1.1-.6 2 .5 1.2.3 1.4-.7.8q-1.35-.75-.6.3c.9 1.5-1.8 5.5-2.9 4.4-.5-.4-.5-.2-.2.4.4.6-.1 2-.9 3-.9 1-1.2 1.3-.8.5.5-.9.3-1.2-.5-.7-.6.4-.9 1.1-.7 1.5.9 1.3-5.2 7.8-7.9 8.5-1.4.4-2.3 1.1-2 1.6.3.6.1 1-.5 1s-.8.5-.4 1.2c.5.9.2.8-.9-.1-1.6-1.2-1.7-1.2-1 .5.6 1.7.5 1.7-1 .5-1.2-.9-1.7-1-1.7-.2 0 .7-.4.9-1 .6-.5-.3-1-.1-1 .5 0 .7-.7 1-1.5.6-.8-.3-1.5 0-1.5.5 0 .6-.9.9-2 .6s-2-.1-2 .5c0 .5-1.8.7-4.4.3-2.8-.5-4.6-.3-5 .4-.4.6-1.8 1.1-3.2 1.1s-2.2-.4-1.9-1c.4-.6-1.6-.8-5.4-.5-3.5.2-6.1 0-6.1-.5 0-1-3.5-1.2-13.8-1-3.5.1-5.2-.3-4.7-.9.7-1.3.4-1.3-5.2-.2-2.8.6-4.1.5-4-.3.1-.6-2.2-1.1-5.8-1.3-3.3-.2-11.3-.5-17.7-.9-8.8-.4-11.8-.2-11.8.7 0 .8-1.4 1-4.5.7-2.9-.4-4.2-.2-3.8.5s-.8.8-3.5.3c-2.9-.4-4.2-.3-4.2.5 0 .6-.9.9-2 .6s-2-.1-2 .5-.9.8-2 .5-2.3-.1-2.6.5c-.3.5-1.3.7-2.1.4-.9-.4-1.1-.2-.7.6.5.7 0 .9-1.4.6-1.4-.4-2-.2-1.5.5.4.6-.2.8-1.5.5-1.2-.4-2.2-.2-2.2.4 0 .5-.5.6-1.2.2-.8-.5-.9-.2-.5 1 .6 1.4.4 1.5-1.5.5-1.8-1-2-.9-1.5.5.6 1.4.3 1.5-1.4.5-1.7-.9-2-.8-1.4.2.6.9.3 1.1-.8.6-1-.3-1.7-.2-1.7.3 0 .6-1.2 1-2.6 1q-2.55 0-1.8 1.2c.5.7.2.9-.9.5-.9-.3-1.8 0-2.1.9-.3.8-1.1 1.4-1.8 1.3-2.5-.3-3.9.1-3.4 1 .3.5-.9 1.4-2.7 2.1-6.8 2.5-7.7 3-7.7 4 0 .6-.4.9-.9.6s-1.2.1-1.5 1c-.3.8-1 1.3-1.5 1s-1.2.1-1.5.9-.9 1.4-1.3 1.3c-.4-.2-1.8.7-3.1 2-1.2 1.2-2.8 2-3.4 1.6s-.9-.3-.6.2-.6 1.8-2 2.8c-1.5 1.2-2.2 1.4-1.7.5.5-.8-1.3.8-3.9 3.6-2.7 2.7-4.3 4.1-3.6 3s-.5-.1-2.8 2.2c-2.3 2.4-4.3 4.3-4.5 4.3s-.4-2-.5-4.5c0-2.7.4-4.3 1-3.9.5.3.9-.2.8-1.2-.4-3.8 0-5.5 1.2-4.8.7.4.8.3.4-.5-.9-1.5.3-5.3 1.5-4.6.5.3.6-.1.3-.9-.4-.9.6-2.6 2.3-4.2 1.5-1.5 2.1-2.4 1.3-2s-.4-.2 1-1.4 1.9-1.8 1.1-1.4-.2-1.1 1.5-3.3c1.6-2.3 3.1-3.9 3.3-3.7.7.6 4.1-2.8 3.6-3.6-.2-.4.8-1.8 2.3-3.1l2.7-2.4-2.4 2.7c-3.6 4.1-2.1 3.4 2-.9 1.8-2 2.7-3.2 1.9-2.8-1.3.8-1.3.6-.2-.8 1.2-1.4 1-1.7-1.2-2.3-1.5-.3-3.2-.1-4 .5-.7.6-2.2.8-3.2.4-1.7-.6-1.8-.5-.4 1.2s1.3 1.8-.5 1.1c-1.1-.5-2.9-1-4-1.3-2-.4-2-.4-.1 1.1 2.3 1.8 1.8 2-1.9.6-1.4-.5-2.4-.6-2.1-.1s-.9.9-2.7.9-5.1.8-7.2 1.8c-2.2.9-4.4 1.6-4.9 1.5s-.4.5.4 1.3c1.5 1.9 0 2.1-1.9.3-1.1-1-1.3-.9-.8.4.4 1.2-.1 1.5-2.4 1.4-1.5-.1-2.6.2-2.3.7.4.5 1.3.7 2.3.3 1.2-.5 1.3-.3.5.5-.9.9-1.7.9-3.3.1-1.2-.7-2.1-.8-2.1-.3 0 .9-3.7 2.5-5.2 2.3-.5-.1-.8.4-.8 1 0 .5-.4.7-1 .4-.5-.3-1-.1-1 .5s-.4.8-1 .5c-.5-.3-1-.1-1 .5s-.4.8-1 .5c-.5-.3-1-.1-1 .5s-.5.8-1.2.4c-1-.6-1-.5 0 .8s.9 1.5-1.2 1.3c-1.4-.2-3.5.6-4.8 1.7-3.8 3.3-4.6.6-4.7-14.9-.1-7.4-.4-14.7-.8-16.1-.5-2.1-.3-2.4 1.1-1.9 1.3.5 1.6 0 1.6-2.7 0-1.8-.7-3.9-1.6-4.7-1.3-1.1-2.1-.6-5.6 3.2-2.2 2.4-3.4 3.5-2.7 2.4s-.6-.2-2.9 1.9c-2.2 2.2-3.9 4.3-3.6 4.7.3.5-.4 1.4-1.6 2.1-2.1 1.4-2.9 4.4-.7 3.2.6-.4.9-.4.5 0-.3.4-.8.6-1.1.4-.2-.2-1.2.4-2.3 1.2-1.8 1.4-1.8 1.4-.4-.5s1.4-1.9-.3-.6c-1.3 1-1.5 1.7-.6 2.7 1.1 1.4.9 1.6-2.1 1.8-.8.1-1.3.5-1.2 1 .2.5-.2 1.2-1 1.7-.7.5-1.3 1.2-1.3 1.6 0 .5-1 1.9-2.2 3.3-1.6 1.6-2.3 1.9-2.4.9-.7-16.8-.7-21.9.2-21.3.6.3.7-.4.3-2.2-.5-1.9-.4-2.5.5-2 1.3.9 1.4.5.1-2.8-.7-2-.6-2.4.6-1.9 1 .4 1.2 0 .8-1.1-.3-.9-.1-1.6.5-1.6s.8-.7.5-1.5c-.4-.8-.1-1.5.6-1.5.6 0 .8-.5.5-1-.9-1.5.5-5.1 1.7-4.4.5.4.4-.4-.3-1.7-1.1-2.2-1.1-2.3.5-1 1.4 1.2 1.6 1.2 1-.3-.3-.9-.1-1.6.5-1.6s1-.3 1-.8c-.3-2 .2-3.2 1.3-2.6q1.05.75.3-.6c-.5-.8.1-2 1.6-3.2 1.3-1.1 1.7-1.7.9-1.3s-.6-.2.5-1.2c3.2-3 6.1-6.7 4.6-5.8-1.1.6-1.3.4-.8-.7.5-1.3 0-1.4-3.4-.6-2.2.6-3.6 1.5-3.2 2.1s-.2.8-1.6.4c-1.9-.5-2-.3-.9 1.1 1.4 1.7 1.5 1.7-3.4-.3-1-.4-1.8-.3-1.8.1 0 .5-1.1 1-2.5 1-2.5.2-3.3-1-1.5-2.1.6-.4.8-1 .5-1.5s0-1.2.6-1.6c.8-.5.9-.3.4.7-.8 1.2-.6 1.2.8 0 .9-.7 1.4-1.7 1.2-2.2-.6-.9 7.1-7.4 8.9-7.4.6 0 1.1-.6 1.1-1.3 0-.8.8-1.9 1.7-2.6 1-.7 1.4-1.7 1-2.2-.4-.4 0-.3 1 .4 1.2 1 1.8 1 2.4.1.5-.8.3-.9-.6-.4q-1.35.75-.6-.3c.4-.7 1.4-1.2 2.2-1.2s2.7-1.2 4.1-2.8c1.5-1.5 2.3-2 1.8-1.2s.4.2 1.8-1.3c1.5-1.5 3.1-2.6 3.6-2.3s1.2-.1 1.5-1c.3-.8 1-1.3 1.5-1s1.2-.1 1.5-1c.4-.9 1.3-1.4 2.2-1 .8.3 1.2.2.9-.4s-.1-1 .5-1 .8-.4.5-1c-.4-.6.1-.7 1.1-.3s1.5.2 1.1-.3c-.5-.9.8-1.2 5.5-1.5 1.2 0 1.5-.6 1.1-1.7-.6-1.5-.5-1.6 1.2-.2 1.5 1.2 1.7 1.2 1 .1-.6-1.1-.4-1.3.8-.8 1 .3 1.7.2 1.7-.3s.6-.7 1.4-.4c.7.3 2-.2 2.9-1 .8-.8 1.7-1.3 2-1s1.8-.1 3.5-1c1.6-.8 3.2-1.2 3.6-.9.3.4-.8 1.3-2.5 2s-2.8 1.7-2.5 2.1c.3.5-.7 2-2.2 3.3l-2.7 2.4 2.5-3 2.5-3-2.7 2.4c-1.5 1.3-2.6 2.7-2.3 3.1.2.3-.7 1.9-2.1 3.6-1.4 1.6-2.2 2.2-1.8 1.4.4-.9.3-1.2-.2-.7s-.9 1.2-.9 1.5c0 1.6-3.3 5.1-4.1 4.4-.4-.4-.2.1.6 1.1.7 1 .9 1.7.3 1.5-1.4-.4-6.4 5-5.3 5.7.4.3 1.1-.1 1.3-.7.3-.8.6-.6.6.4.1 1.6-1.5 2.3-4.1 1.9-.4 0-.5.6-.1 1.5.3.9 1.2 1.3 2.2.8.9-.3 2.4-.9 3.3-1.1 1-.3 1.5-1 1.1-1.6s0-.8 1-.4 1.7.2 1.7-.4.7-.9 1.5-.5c.8.3 1.5.1 1.5-.5s.7-.9 1.5-.5c.8.3 1.5.1 1.5-.5s.7-.9 1.5-.5c.8.3 1.5.1 1.5-.5s.5-.7 1-.4c.6.3 1 .2 1-.3s1.2-1 2.6-1c1.5 0 3-.5 3.4-1.2s1.3-.9 1.9-.6c.6.4 1.1.2 1.1-.4 0-.7.7-1 1.5-.6.8.3 1.5.1 1.5-.5s.9-.8 2.1-.4c1.6.5 1.9.4 1.4-.6-.6-.9-.2-1.1 1.3-.7 1.2.4 2.2.2 2.2-.4s.9-.8 2-.5 2 .1 2-.5.9-.8 2-.5 2 .1 2-.5c0-.5.9-.6 2-.3 1.2.4 2 .2 2-.5s.8-.9 2-.5 2 .2 2-.5c0-.6 1-.8 2.6-.4 2 .5 2.5.4 1.9-.6-.6-.9 0-1.1 2.3-.5 1.8.4 3.3.2 3.7-.5s1.9-.9 3.7-.5c2.3.6 2.9.4 2.3-.5-.6-1 .1-1.2 3.1-.7 2.8.5 3.5.4 2.4-.4-1.1-.7-.2-.9 3.3-.5 2.9.3 4.7.1 4.7-.6s1.6-.8 4.5-.4c2.6.4 4.5.3 4.5-.2s2.6-.9 5.9-.8c4.2.1 5.8-.2 5.7-1.1-.3-2-5.8-7.3-6.9-6.6-.6.3-.7.2-.4-.4.3-.5-1.2-2.3-3.3-3.9-2.2-1.6-4-3.1-4-3.4s3.6-.6 8-.7c5.2-.1 7.8.2 7.4.9-.4.5.4.5 1.6-.2 1.5-.8 2-.8 1.6-.1-.4.6-.2 1.1.4 1.1s.8.5.4 1.2c-.6 1-.4 1 .8 0 1.8-1.4 2.7-.6 2.2 2.1-.1 1 .4 2.1 1.2 2.4s1.2.8.9 1.3c-.2.4.7 1.3 2 2 2.1 1.1 2.3 1.6 1.2 2.9-.9 1.2-.9 1.3.1.7.7-.4 1.2-.2 1.2.4 0 .7.7 1 1.5.7.8-.4 1.7-.2 2 .3s2.7.7 5.2.3c3.2-.4 4.4-.3 3.9.5-.4.7.5.9 3.1.6 3-.5 3.5-.3 2.3.6s-.8 1 1.9.5c2.3-.5 3.1-.4 2.7.4-.4.7-.1.9.8.5.9-.3 2.3.2 3.2 1.1s2.3 1.4 3 1.1c.8-.3 1.4-.1 1.4.4 0 1.5 1.7 1.2 2.3-.4.6-1.4-7.1-10.3-8.4-9.9-.3.1-.6-.4-.6-1.2s.5-1.1 1.1-.8-.2-.8-1.8-2.5-3.4-3-4-2.9-1-.3-.9-.9c.1-.7-.7-2-1.7-2.9-1.1-1-2-1.4-2-.9s-1-.2-2.1-1.6-1.8-1.8-1.4-1c.4 1 .2.9-.8-.2-.8-1-1.7-1.5-2-1.1-.4.3-.7.1-.7-.6s-.4-.9-1-.6c-.5.3-1 .1-1-.5s-.4-.8-1-.5c-.5.3-1 .1-1-.5 0-.8-.6-.8-2 0-1.6.9-1.9.8-1.3-.6.4-1.2.3-1.5-.5-1-.7.4-1.2.3-1.2-.3s-.7-.8-1.5-.5c-.8.4-1.5.1-1.5-.6 0-.6-.4-.9-.9-.5-.5.3-1.2.1-1.5-.4s-1.6-.7-2.8-.3c-1.5.4-1.9.2-1.3-.7.5-1 .2-1.1-1.4-.6-1.3.4-2.1.2-2.1-.5 0-.6-1-.8-2.6-.4-2 .5-2.5.4-1.9-.6.5-.9.2-1-1.5-.5-1.4.4-2.5.3-3-.5-.6-.9-1.3-.9-2.9-.1-1.7.9-2.1.9-1.9-.1.2-.9-.7-1.2-2.8-1s-3.3-.2-3.7-1.3c-.5-1.1.1-1.5 2.3-1.5 1.7 0 3-.5 3-1 0-.6 4.2-1 10.8-1 7.5 0 10.3.3 9.2 1m-5.6 8.9c.4.5-.3.7-1.4.4-2.3-.6-2.6-1.3-.6-1.3.8 0 1.7.4 2 .9M441.7 411.8c-1 1-1.4 2.2-1 2.7.5.4.2.5-.5.1-1.1-.6-1-1.2.4-2.7.9-1 1.9-1.9 2.2-1.9s-.2.8-1.1 1.8m-141 56.4c-.3.7-.5.2-.5-1.2s.2-1.9.5-1.3c.2.7.2 1.9 0 2.5"/><path d="M520.8 418.7c.7.3 1.6.2 1.9-.1.4-.3-.2-.6-1.3-.5-1.1 0-1.4.3-.6.6m76.7-245.5c.7 1.7-2.6 4.3-3.8 3.1-.4-.3-1.4 0-2.4.8-1.5 1.2-1.6 1.2-.8-.1.4-.8-.4-.2-1.8 1.3-1.5 1.6-3.2 2.5-3.9 2.1s-.8-.3-.4.5c.4.6 1.2.8 1.8.5.7-.5.8-.2.3.5-.4.7-1.8 1.1-3.1.8-1.4-.2-2.7 0-3.1.6s-.1.7.8.2c.8-.4.1.5-1.6 2-1.6 1.4-2.3 2.3-1.5 1.9 1.3-.7 1.3-.5.1.9-1.2 1.5-3.1 1.5-3.1.1 0-.3.5-.2 1.2.2s.8.3.4-.5c-.4-.6-1.2-.9-1.7-.5-.5.3-.7.9-.4 1.3.2.5-.5 1.7-1.7 2.7-1.4 1.2-1.9 1.4-1.3.4.4-.8-.6-.2-2.3 1.4s-2.9 3.3-2.6 3.8c.3.4-.9 2.3-2.8 4.1-1.8 1.7-3.1 3.8-3 4.5.2.7-.4 1.5-1.3 1.8-1.2.5-1.3 1-.4 2 .6.7.8 2.2.5 3.4-2 6.8-2 6.7-.3 4.5 1.5-1.9 1.5-1.8.7 1.7-.5 2.6-.5 3.6.3 3.1.6-.4.8.2.4 1.6-.3 1.2.1 2.7.8 3.5.8.7 1.1 1.7.7 2.2s.2.2 1.3-.6 1.7-1 1.3-.6c-1.3 1.5 1.3 3.8 2.7 2.6 1-.8 1.5-.6 2 .9.4 1.2 1.2 1.8 2.1 1.4.7-.3 1.4 0 1.4.6s.7.8 1.7.4c1.1-.4 1.4-.3.9.5s-.2 1 .8.6c.9-.3 1.6-.1 1.6.5s.7.8 1.7.4c1.1-.4 1.4-.3.9.5s-.2 1 .8.6c.9-.3 1.6-.1 1.6.6 0 .6.5.8 1 .5.6-.3 1-.2 1 .3 0 1.2 4.9 3.4 6.1 2.7.5-.4.9-.1.9.5s.4.9.9.6c1.1-.7 4.2.4 3.7 1.3-.2.3.6.6 1.9.6 2.1 0 2.2-.4 2-5.6-.1-3.1-.4-6-.7-6.5-.2-.5-.3-1.5-.2-2.2.1-.6.2-2.2.3-3.5.2-2.1.3-2.1 1.1-.2.4 1.1.8-8.7.8-22.3 0-13.3-.3-24.2-.7-24.2-.5 0-.6-1-.4-2.3.3-1.4-.3-2.9-1.7-4.2-1.7-1.5-2-1.6-1.5-.3m2.2 13.5c-.3 1-.5.4-.5-1.2 0-1.7.2-2.4.5-1.8.2.7.2 2.1 0 3m-101.8-4-3.4 3.8 3.8-3.4c2-1.9 3.7-3.6 3.7-3.8 0-.8-.8 0-4.1 3.4m59.2 29.9c0 1.1.3 1.4.6.6.3-.7.2-1.6-.1-1.9-.3-.4-.6.2-.5 1.3m144.8 219.1c-1.3 1.6-1.2 1.7.4.4.9-.7 1.7-1.5 1.7-1.7 0-.8-.8-.3-2.1 1.3M272 533.8c-.7.7-1.9 1.1-2.7.8s-1.1-.1-.8.4c.3.6.1 1.1-.4 1.1-.6.1-1.6.2-2.3.3-.6 0-1.2.8-1.3 1.6-.6 3.2-1 4.5-2.1 5.6-.7.8-1 36.1-1 118l.1 116.9 2.2 3.1c1.2 1.7 2 3.3 1.7 3.6-.2.3.8.5 2.3.4 2-.1 2.8.4 2.7 1.6-.1 1 .4 1.4 1.2 1.1s1.4-.1 1.4.3c0 .5 32.6.9 72.5.9s72.5-.4 72.5-.9c0-.4.7-.5 1.6-.2.8.3 1.3.2 1-.3s.1-1.2 1-1.5c1-.4 1.3-.2.9.7-.4.6 0 .4.8-.6.8-.9 2-1.7 2.6-1.7.7 0 .9-.5.6-1-.3-.6.1-1.3.9-1.6.9-.3 1.3-1 1-1.5s0-.9.6-.9.8-.5.5-1c-.3-.6-.3-1 .2-1 .4 0 .7-15.3.6-33.9-.2-32.9-.7-39.2-3.3-37.6-.5.3-1.4-.4-2-1.5s-1.5-1.8-1.9-1.5c-.5.3-1.2-.2-1.5-1.1-.5-1.3-.9-1.4-2.1-.4-1.3 1.1-1.4 1-1-.2.3-.8-.1-2.1-1-2.8-.8-.7-1.5-.9-1.5-.4s-1-.2-2.1-1.6-1.8-1.8-1.4-1-.3.4-1.5-1-1.8-1.9-1.4-1.1-1.1-.3-3.4-2.4c-3.4-3.2-3.9-4.2-2.9-5.4s.9-1.3-.3-.7c-.8.4-.4-.2 1-1.3s3.1-2.1 3.9-2.1c.7 0 2.4-1.2 3.7-2.6s2.8-2.3 3.3-1.9c.5.3 1.3 0 1.7-.6.5-.8.3-.9-.6-.4-.9.6-1.1.4-.6-.4.5-.7 1.5-1 2.3-.7s1.1.1.8-.4c-.6-.9.8-1.4 2.8-1.1.5.1.6-.2.3-.7-.2-.4.4-1.4 1.6-2.1 1.6-1 1.9-1 1.3.1-.5.7.8-.5 2.9-2.7l3.6-4-.2-60.7c-.2-33.5-.7-60.8-1.1-60.8-.5 0-.6-.4-.2-1 .3-.5-.8-2.4-2.6-4.2-1.7-1.8-2.7-2.6-2.3-1.8.4.9-.3.6-1.7-.6-1.3-1.2-3-1.9-3.6-1.7-.7.3-1.3.1-1.3-.4 0-.4-32.6-.8-72.4-.8-58.6 0-72.6.3-73.6 1.3m97 11.5c2.5.4 2.5.4 2.5 7.9 0 .1-10.9.4-24.3.7-13.3.4-24.2.2-24.2-.2 0-.5-.4-.6-.9-.3-.4.3-.8-1.3-.7-3.7l.1-4.1 7.5-.4c4.1-.2 7.6-.5 7.7-.5.3-.4 29.9.2 32.3.6m-4.3 10.3c-.7.7-34.8.6-35.6-.1-.2-.3 7.8-.5 17.9-.5s18.1.3 17.7.6"/><path d="M489 649.8c0 .5-1.1 1.4-2.5 2-1.4.7-3.1 1.6-3.8 2.2-2.2 1.8-11.6 8-12.3 8-.9 0-14.7 9-17.1 11.3-1.3 1.1-2.3 1.7-2.3 1.3s-1 .2-2.2 1.3c-1.1 1.1-2.4 1.8-2.8 1.6-.5-.3-1.1.2-1.4 1s-.9 1.4-1.3 1.3-2.1 1-3.7 2.5-3.8 2.7-4.8 2.7c-1.1 0-1.6.4-1.3 1 .3.5.1 1.1-.4 1.1-.6.1-1.5.2-2 .3-.5 0-1.3.5-1.8.9-.4.5-.1.7.7.5.8-.1 1.4.3 1.5 1.1 0 .8.8 1.5 1.9 1.7 1 .1 2.4.8 3 1.5.8.9.8 1-.3.4-1-.5-1.2-.4-.7.4.4.6 1.1.9 1.5.6.5-.2 1.7.3 2.7 1.1 1 .9 1.2 1.2.4.8-.9-.4-1.2-.3-.7.2s1.6.9 2.5.9 1.6.6 1.4 1.3c-.1.8.1 1.1.6.8s1.8.2 2.8 1c1 .9 1.2 1.2.4.8-.9-.4-1.2-.3-.7.2s1.6.9 2.5.9c1 0 1.6.6 1.4 1.5-.2.8 0 1.2.3.8 1.1-1.1 4.7 1.1 3.9 2.4-.4.7-.2.8.5.4.7-.5 2.4.6 4.3 2.6 1.7 1.8 2.8 2.7 2.4 1.9-.6-.9 0-.7 1.8.4 2.6 1.7 3.7 3.3 1.4 1.9-.8-.4-1-.3-.5.2s1.3 1 1.8 1c.5.1 1.4.2 2 .3.5 0 .7.6.3 1.3-.4.6-.3.8.3.5.6-.4 2.5.6 4.2 2.3 1.8 1.6 3.4 2.9 3.6 2.9.3.1 1 .1 1.6.1.5 0 .8.4.4.9-.3.6.4.8 1.5.6s1.8 0 1.5.6c-.4.5-.1.9.5.9s.8.6.4 1.2c-.4.7-.4 1 .1.6.9-.9 4.7 1 4.1 2-.3.4.6.9 2 1 2.8.2 3-.5 3.9-13.3.4-4.9.8-9.1.9-9.3.2-.1 23.1-.2 50.9-.2H595l.2-5.8c.2-7.4-.3-35.6-.7-36-.5-.6-8.7 3.8-14.5 7.8-3 2-7.4 4.7-9.7 5.9-2.4 1.2-7 3.9-10.3 6-3.3 2.2-6.8 3.8-7.8 3.6-.9-.2-2.5-.4-3.5-.4-1-.1-2.2-1.1-2.7-2.4-.5-1.2-.9-1.8-1-1.2 0 .5-.4.4-.9-.4-.5-.7-.6-4-.4-7.2l.6-5.9-7.9-.1c-4.4-.1-10.6-.3-13.9-.4s-11.5-.2-18.2-.3l-12.2-.2-.3-10.7c-.2-7.4-.7-10.8-1.5-11.1-.7-.2-1.3 0-1.3.6m1.7 69.4c-.2 1.3-.4.3-.4-2.2s.2-3.5.4-2.3c.2 1.3.2 3.3 0 4.5"/></g><path fill="navy" d="M531.5 158c.3.5.8 1 1.1 1 .2 0 .4-.5.4-1 0-.6-.5-1-1.1-1-.5 0-.7.4-.4 1m-6 2.6-3 2.6 3.5-2.3c4.5-2.9 4.5-2.9 3.4-2.9-.5 0-2.2 1.2-3.9 2.6m8.5.5c0 1.2 5.9 16.3 6 15.2 0-1.3-4.7-14.4-5.5-15.2-.3-.2-.5-.2-.5 0m-16 5c-1.9 1.7-2.6 2.6-1.5 2.1 1.8-.9 6.4-5.2 5.4-5.2-.2 0-2 1.4-3.9 3.1m-8.6 7.1-1.9 2.1 2.8-1.8c2.8-1.8 3.3-2.5 1.9-2.5-.5 0-1.7 1-2.8 2.2m85.4.8c-2 1.1-3.9 2.4-4.3 3-.3.5 1.3-.2 3.7-1.5 3.4-1.9 4.5-2.2 5.7-1.2 1.1 1 1.3.9 1-.2-.8-2.2-2-2.2-6.1-.1m-98.3 10.7c-4.8 4.5-5.4 5.3-2 2.5 4.7-3.8 10.3-9.3 9.4-9.2-.2.1-3.5 3.1-7.4 6.7m43.6-5.1c0 1.1.3 1.4.6.6.3-.7.2-1.6-.1-1.9-.3-.4-.6.2-.5 1.3m43.8 1.6c-6.1 4.4-11.2 8.8-12.3 10.7-.5.9 1.1-.2 3.5-2.5s6.5-5.6 9.2-7.4c4.3-3 5.3-4 4.4-4-.2 0-2.4 1.4-4.8 3.2m-42.8 1.8c0 .8.4 2.4.9 3.5.5 1.3.9 1.4.9.5 0-.8-.4-2.4-.9-3.5-.5-1.3-.9-1.4-.9-.5m2.1 9c0 1.4.2 1.9.5 1.2.2-.6.2-1.8 0-2.5-.3-.6-.5-.1-.5 1.3m-57.5 2.8c-1.5 1.5-2.7 3.2-2.7 3.6 0 .7.9-.1 4.4-4.2 2.7-3.2 1.5-2.7-1.7.6m25.3 2.4c-1.5 2.1-1.7 2.8-.6 1.9 1.6-1.3 4.1-5.1 3.3-5.1-.2 0-1.4 1.5-2.7 3.2m33.1-.6c0 1.1.3 1.4.6.6.3-.7.2-1.6-.1-1.9-.3-.4-.6.2-.5 1.3m21 1.9c-1.7 2-3.1 3.8-3.1 4 0 1.2 1 .2 4-3.5 3.9-4.9 3.3-5.3-.9-.5m-60.9 8.2c-3.9 5.8-10.2 17.6-10.2 19 0 .4 2-2.8 4.3-7.2s5.7-10.1 7.5-12.8c1.8-2.6 3.1-4.7 2.8-4.7s-2.3 2.6-4.4 5.7m13.1-2.2c0 2.2.2 3 .4 1.7.2-1.2.2-3 0-4-.3-.9-.5.1-.4 2.3m84 0c0 2.2.2 3 .4 1.7.2-1.2.2-3 0-4-.3-.9-.5.1-.4 2.3m-124.4.2-2.4 2.8 2.8-2.4c2.5-2.3 3.2-3.1 2.4-3.1-.2 0-1.4 1.2-2.8 2.7m69.3-.7c0 2.8 2.5 13.3 2.6 11 .1-.8-.5-4.2-1.2-7.5-.8-3.3-1.4-4.9-1.4-3.5m13.4 2.7c-.6 1.4-.5 1.5.5.6.7-.7 1-1.5.7-1.8s-.9.2-1.2 1.2m-89.9 5.8c-3.7 4.7-3.4 5.4.4 1 1.8-2 3-3.8 2.7-4-.2-.2-1.6 1.1-3.1 3m47.4-1.9c0 1.1.3 1.4.6.6.3-.7.2-1.6-.1-1.9-.3-.4-.6.2-.5 1.3m41.4 4c.2 3.3.9 7.1 1.5 8.5.9 2.1.9 1.9.4-1.1-.4-1.9-1-5.8-1.5-8.5-.8-5-.8-5-.4 1.1m-9.4 4.5c0 1.3.4 3.3.9 4.4.7 1.4.8.8.3-2-.7-4.6-1.3-5.9-1.2-2.4m-88.2 4.1c-1.9 2.4-2.6 3.7-1.6 2.9 2-1.6 6.1-7.1 5.4-7.1-.3 0-2 1.9-3.8 4.2m56.3.8c0 1.9.2 2.7.5 1.7.2-.9.2-2.5 0-3.5-.3-.9-.5-.1-.5 1.8m83.1 5c0 2.5.2 3.5.4 2.2.2-1.2.2-3.2 0-4.5-.2-1.2-.4-.2-.4 2.3m-108.7 2c-2.2 5.6-1.9 6.5.5 1.1 1.1-2.4 1.8-4.6 1.5-4.8-.2-.2-1.1 1.4-2 3.7m59.6-2c0 1.4.2 1.9.5 1.2.2-.6.2-1.8 0-2.5-.3-.6-.5-.1-.5 1.3m-95.8 1.2c-3.1 3.6-4.7 5.8-4.1 5.8.3 0 2-1.8 3.7-4 3.4-4.3 3.6-5.5.4-1.8m62.8-.2c0 1.4.2 1.9.5 1.2.2-.6.2-1.8 0-2.5-.3-.6-.5-.1-.5 1.3m43.8-1.6c0 .2.8 1 1.8 1.7 1.5 1.3 1.6 1.2.3-.4s-2.1-2.1-2.1-1.3m5 3c0 .2.7.7 1.6 1 .8.3 1.2.2.9-.4-.6-1-2.5-1.4-2.5-.6m-47.9 2.6c0 .8.4 2.2.9 3 1.2 1.8 1.2.2 0-2.5-.6-1.3-.9-1.5-.9-.5m55.9 1c.8.5 2 1 2.5 1 .6 0 .3-.5-.5-1s-1.9-1-2.5-1c-.5 0-.3.5.5 1m25.2 3c0 1.9.2 2.7.5 1.7.2-.9.2-2.5 0-3.5-.3-.9-.5-.1-.5 1.8m-20.2-1c.8.5 2 1 2.5 1 .6 0 .3-.5-.5-1s-1.9-1-2.5-1c-.5 0-.3.5.5 1m-131.6 2.2-1.9 2.3 2.3-1.9c2.1-1.8 2.7-2.6 1.9-2.6-.2 0-1.2 1-2.3 2.2m113.3 1.9c.7.7 1.5 1 1.8.7s-.2-.9-1.2-1.2c-1.4-.6-1.5-.5-.6.5m31.3 1.1c1.3 1.4 7 3.8 7 2.9 0-.5-.8-1.1-1.7-1.4-1-.2-2.7-.8-3.8-1.2-1.1-.5-1.8-.6-1.5-.3m-106.4 3.4c-.4 1.4-.5 2.8-.3 3.1.3.2.8-.8 1.1-2.3.4-1.4.5-2.8.3-3.1-.3-.2-.8.8-1.1 2.3m85.4-.1c1.4.8 3 1.4 3.5 1.4.6 0-.1-.6-1.5-1.4s-2.9-1.4-3.5-1.4c-.5 0 .1.6 1.5 1.4m-71 2c0 1.5.4 2.4 1 2 .6-.3 1-1.2 1-2s-.4-1.7-1-2c-.6-.4-1 .5-1 2m78 .9c0 .2.7.7 1.6 1 .8.3 1.2.2.9-.4-.6-1-2.5-1.4-2.5-.6m-93.9 3.2c0 1.1.3 1.4.6.6.3-.7.2-1.6-.1-1.9-.3-.4-.6.2-.5 1.3m-56.1 1.9c-1.4.8-2 1.4-1.5 1.4.6 0 2.1-.6 3.5-1.4s2.1-1.4 1.5-1.4c-.5 0-2.1.6-3.5 1.4m90.5.5c-.3.6.1.7.9.4 1.8-.7 2.1-1.4.7-1.4-.6 0-1.3.4-1.6 1m-35.4 2.6c0 1.1.3 1.4.6.6.3-.7.2-1.6-.1-1.9-.3-.4-.6.2-.5 1.3m31.9-.6c-.9.6-1 1-.3 1 .6 0 1.5-.5 1.8-1 .8-1.2.4-1.2-1.5 0m-102.7 6.1c-3.5 2.2-4.6 3.7-1.5 2 2.2-1.3 5.8-4 5.2-4.1-.3 0-2 1-3.7 2.1m70 2.9c0 3 .2 4.3.4 2.7.2-1.5.2-3.9 0-5.5-.2-1.5-.4-.2-.4 2.8m10.6 7.7-3.4 3.8 3.8-3.4c2-1.9 3.7-3.6 3.7-3.8 0-.8-.8 0-4.1 3.4m-96-.6-2.4 2 2.8-1.7c1.5-.9 2.7-1.8 2.7-2 0-.8-.8-.4-3.1 1.7m85.4 4.9c0 2.5.2 3.5.4 2.2.2-1.2.2-3.2 0-4.5-.2-1.2-.4-.2-.4 2.3m-94.5 1.5c-3.2 2.5-5.8 4.7-5.8 5s2.7-1.6 6-4.1c5.2-3.9 6.8-5.4 5.8-5.4-.2 0-2.9 2-6 4.5m239.2-3.1c0 .2.8 1 1.8 1.7 1.5 1.3 1.6 1.2.3-.4s-2.1-2.1-2.1-1.3m-251.7 13.2-4.8 4.6 5.3-4.3c2.8-2.3 5.2-4.4 5.2-4.6 0-.8-1.2 0-5.7 4.3m264.7-1.2c0 .2.8 1 1.8 1.7 1.5 1.3 1.6 1.2.3-.4s-2.1-2.1-2.1-1.3m-279.5 14.8-8 8.3 8.3-8c7.6-7.4 8.7-8.5 7.9-8.5-.1 0-3.8 3.7-8.2 8.2m284.6-3.6c0 1.1.3 1.4.6.6.3-.7.2-1.6-.1-1.9-.3-.4-.6.2-.5 1.3m-86.8 2.1c3.2.2 8.1.2 11 0s.3-.3-5.8-.3c-6 0-8.4.1-5.2.3m20.5 1c1.2.2 3 .2 4 0 .9-.3-.1-.5-2.3-.4-2.2 0-3 .2-1.7.4m9 1c.7.3 1.6.2 1.9-.1.4-.3-.2-.6-1.3-.5-1.1 0-1.4.3-.6.6m58.4 1.8c0 1.6.2 2.2.5 1.2.2-.9.2-2.3 0-3-.3-.6-.5.1-.5 1.8m-97.4.2c.6.2 1.8.2 2.5 0 .6-.3.1-.5-1.3-.5s-1.9.2-1.2.5m52.2 2.4c1.9 1.2 4.9 3.3 6.6 4.7 1.6 1.5.8.6-2-2.1-2.7-2.6-5.7-4.7-6.5-4.7-.9 0 0 1 1.9 2.1m-41.2-.4c.7.3 1.6.2 1.9-.1.4-.3-.2-.6-1.3-.5-1.1 0-1.4.3-.6.6m4 1c.7.3 1.6.2 1.9-.1.4-.3-.2-.6-1.3-.5-1.1 0-1.4.3-.6.6m8 2c.7.3 1.6.2 1.9-.1.4-.3-.2-.6-1.3-.5-1.1 0-1.4.3-.6.6M351.5 312c-.3.5-.1 1 .4 1 .6 0 1.1-.5 1.1-1 0-.6-.2-1-.4-1-.3 0-.8.4-1.1 1m-3.1 4.2-1.9 2.3 2.3-1.9c2.1-1.8 2.7-2.6 1.9-2.6-.2 0-1.2 1-2.3 2.2m265.6 2.2c0 .2.8 1 1.8 1.7 1.5 1.3 1.6 1.2.3-.4s-2.1-2.1-2.1-1.3m39 3.1c1.3 1.4 2.6 2.5 2.8 2.5.3 0-.5-1.1-1.8-2.5s-2.6-2.5-2.8-2.5c-.3 0 .5 1.1 1.8 2.5m-85.7.5c2.1.4 5.2 1.8 7 3q3.15 2.4 1.8.6c-2.1-2.5-6.6-4.6-9.8-4.5-2.3.1-2.2.2 1 .9m-226.6 4c-3.7 5.2-2.8 5.2 1.3 0 1.7-2.2 2.8-4 2.3-4-.4 0-2.1 1.8-3.6 4m276.3-3.6c0 .2.8 1 1.8 1.7 1.5 1.3 1.6 1.2.3-.4s-2.1-2.1-2.1-1.3m5.2 6.6c1.2 1.6 2.6 3 3.2 3 .5 0-.3-1.4-1.9-3-1.6-1.7-3-3-3.2-3s.6 1.3 1.9 3m-12.8 4.3c1.6 2 3 3.7 3.3 3.7.7 0-3.6-5.8-4.9-6.6-.7-.4.1.9 1.6 2.9m-275 1c-1.1 1.8-2.9 4.4-3.8 5.9-1 1.6-1.6 2.8-1.4 2.8.7 0 8-11.1 7.6-11.5-.2-.2-1.3 1.1-2.4 2.8m246.1-.9c1 1.4 1.9 2.6 2.2 2.6.7 0-1.7-3.9-2.8-4.6-.6-.3-.3.5.6 2m45.5 0c0 .6 6.6 4.6 7.5 4.6.4 0-.9-1.1-2.9-2.5-3.6-2.5-4.6-2.9-4.6-2.1m46 0c0 .2.7.7 1.6 1 .8.3 1.2.2.9-.4-.6-1-2.5-1.4-2.5-.6M471 335c-.8.5-1 1-.5 1 .6 0 1.7-.5 2.5-1s1.1-1 .5-1c-.5 0-1.7.5-2.5 1m8.4 3.2c-5.3 5.5-14.4 16.7-14.4 17.6 0 .4 1.3-.9 2.8-2.8s5.8-7 9.5-11.3c7.4-8.4 8.5-10.2 2.1-3.5m-16.6.9c-3.2 1.6-5.8 3.2-5.8 3.4 0 .3 2.7-.8 6-2.5s6-3.2 6-3.5c0-.7.2-.8-6.2 2.6M567 337c-1.2.7-1 .9.8.7 1.2 0 2.2-.5 2.2-.9 0-1.1-1.2-1-3 .2m-5.2.7c.6.2 1.8.2 2.5 0 .6-.3.1-.5-1.3-.5s-1.9.2-1.2.5m29.5 0c.9.2 2.5.2 3.5 0 .9-.3.1-.5-1.8-.5s-2.7.2-1.7.5m-42 1c.9.2 2.3.2 3 0 .6-.3-.1-.5-1.8-.5-1.6 0-2.2.2-1.2.5m49 0c.9.2 2.3.2 3 0 .6-.3-.1-.5-1.8-.5-1.6 0-2.2.2-1.2.5m85.1.7c1.1.9 2.4 1.6 3 1.6 1.2 0 .7-.5-2.4-1.9-2.4-1.1-2.4-1.1-.6.3m-146.9.6c-2.7.7-2.7.8-.5.8 1.4 0 3.9-.4 5.5-.8 2.7-.7 2.7-.8.5-.8-1.4 0-3.8.4-5.5.8m68 0c1.1.5 2.7.9 3.5.9.9 0 .8-.4-.5-.9-1.1-.5-2.7-.9-3.5-.9-.9 0-.8.4.5.9m33.5 0c.8.5 2 1 2.5 1 .6 0 .3-.5-.5-1s-1.9-1-2.5-1c-.5 0-.3.5.5 1m-108.2 1.7c.7.3 1.6.2 1.9-.1.4-.3-.2-.6-1.3-.5-1.1 0-1.4.3-.6.6m114.2.8c1.4.8 3 1.4 3.5 1.4.6 0-.1-.6-1.5-1.4s-2.9-1.4-3.5-1.4c-.5 0 .1.6 1.5 1.4m44.7-.4c.7.7 1.5 1 1.8.7s-.2-.9-1.2-1.2c-1.4-.6-1.5-.5-.6.5m-165.9.6c.7.3 1.6.2 1.9-.1.4-.3-.2-.6-1.3-.5-1.1 0-1.4.3-.6.6m169.9 1.4c.7.7 1.5 1 1.8.7s-.2-.9-1.2-1.2c-1.4-.6-1.5-.5-.6.5m-365.8 2.1c-.7 1.2-1.9 3.3-2.7 4.5-.8 1.3-1.2 2.3-.9 2.3.8 0 5.9-8.2 5.4-8.7-.3-.2-1.1.6-1.8 1.9m123.5.4c-1.8 1.4-1.8 1.5.4.4 1.2-.6 2.2-1.3 2.2-1.5 0-.8-.5-.6-2.6 1.1m56.4.1c.7.3 1.6.2 1.9-.1.4-.3-.2-.6-1.3-.5-1.1 0-1.4.3-.6.6m148.2.3c.8.5 2 1 2.5 1 .6 0 .3-.5-.5-1s-1.9-1-2.5-1c-.5 0-.3.5.5 1m-152.2.7c.7.3 1.6.2 1.9-.1.4-.3-.2-.6-1.3-.5-1.1 0-1.4.3-.6.6m197.9.4c.7.7 1.5 1 1.8.7s-.2-.9-1.2-1.2c-1.4-.6-1.5-.5-.6.5m-201.9.6c.7.3 1.6.2 1.9-.1.4-.3-.2-.6-1.3-.5-1.1 0-1.4.3-.6.6m161.2.3c.8.5 2 1 2.5 1 .6 0 .3-.5-.5-1s-1.9-1-2.5-1c-.5 0-.3.5.5 1m46 1.4c0 .2.7.7 1.6 1 .8.3 1.2.2.9-.4-.6-1-2.5-1.4-2.5-.6m8 4.1c2.5 1.3 5 2.4 5.5 2.4.6 0-1-1.1-3.5-2.4s-4.9-2.4-5.5-2.4c-.5 0 1 1.1 3.5 2.4m-376.5-.5c-.8 1.3.5 1.3 2.5 0 1.3-.8 1.3-1-.2-1-.9 0-2 .4-2.3 1m94.7 6.2c-4.5 3.9-8 7.3-7.7 7.6s2.7-1.4 5.3-3.9 6.4-6 8.5-7.7c2.1-1.8 3.4-3.2 3-3.2s-4.5 3.2-9.1 7.2M672 354c.8.5 2 1 2.5 1 .6 0 .3-.5-.5-1s-1.9-1-2.5-1c-.5 0-.3.5.5 1m-342.2 3.6c-2.7 1.3-4.8 2.7-4.8 2.9 0 .5 9.9-4.2 10.9-5.1 1.3-1.1-2 0-6.1 2.2m11.7 4.1c-2.1 2.7-2.8 3.9-1.6 2.8 2.3-1.9 6.6-7.5 5.9-7.5-.2 0-2.1 2.1-4.3 4.7m121.1-2.1c-1 1.4-1.6 2.8-1.3 3 .2.3 1.2-.7 2.1-2.2 1-1.4 1.6-2.8 1.3-3-.2-.3-1.2.7-2.1 2.2M682 358c.8.5 2 1 2.5 1 .6 0 .3-.5-.5-1s-1.9-1-2.5-1c-.5 0-.3.5.5 1m40.6.5c1 .8 2.3 1.5 2.8 1.5.6 0 .1-.7-1-1.5-1-.8-2.3-1.5-2.8-1.5-.6 0-.1.7 1 1.5m-403.4 1.9c-1.6 3.6-1.1 4.1 2.5 2.2 1.8-1 2.2-1.5 1.1-1.6-.9 0-1.8-.8-2-1.7-.2-1.2-.6-1-1.6 1.1M687 360c.8.5 2 1 2.5 1 .6 0 .3-.5-.5-1s-1.9-1-2.5-1c-.5 0-.3.5.5 1m40.5 1c.3.5 1.1 1 1.6 1 .6 0 .7-.5.4-1-.3-.6-1.1-1-1.6-1-.6 0-.7.4-.4 1m-33.5 2c.8.5 2 1 2.5 1 .6 0 .3-.5-.5-1s-1.9-1-2.5-1c-.5 0-.3.5.5 1m37.7.1c.7.7 1.5 1 1.8.7s-.2-.9-1.2-1.2c-1.4-.6-1.5-.5-.6.5m-395.8 5.6c-3.2 3.9-4.4 5.7-3.2 5 1.3-.8 5.7-6.7 5-6.7-.2 0-1 .8-1.8 1.7m406.9 1.9c.5 2.9.8 3 1.5.5.3-1.1-.1-2.2-.8-2.4-.8-.4-1 .3-.7 1.9m-303.3-.5c-1.1 1.7.1 2.1 1.5.4.8-.9.8-1.5.2-1.5s-1.4.5-1.7 1.1m260.6 2.5c0 1.1.3 1.4.6.6.3-.7.2-1.6-.1-1.9-.3-.4-.6.2-.5 1.3m-271.6.4c-1.3.5-1.4.9-.5.9.8 0 2.4-.4 3.5-.9 1.3-.5 1.4-.9.5-.9-.8 0-2.4.4-3.5.9m270.7 4c0 1.4.2 1.9.5 1.2.2-.6.2-1.8 0-2.5-.3-.6-.5-.1-.5 1.3m-264.3.7c-1.3 1.6-1.2 1.7.4.4s2.1-2.1 1.3-2.1c-.2 0-1 .8-1.7 1.7m304.7 2.2c-2.1 4.1-3.7 8.1-3.1 8.1.8 0 5.7-10.2 5.1-10.7-.2-.3-1.2.9-2 2.6m-413.1 1.8-1.7 2.8 2.3-2.2c1.2-1.2 2-2.5 1.7-2.8s-1.3.7-2.3 2.2m105 1.3c-.9 1.6-1.3 3-1.1 3 .3 0 1.2-1.4 2.1-3 .9-1.7 1.3-3 1.1-3-.3 0-1.2 1.3-2.1 3m268.5-2.2c0 1.9 2.6 6.6 4.7 8.3 1.7 1.3 1.7 1.3 0-1.1-1-1.4-2.4-3.9-3.2-5.5-.8-1.7-1.4-2.4-1.5-1.7m-378.3 8.4c-3.6 6.2-6.1 11.5-4.9 10.3 1.3-1.3 8.4-14.5 7.8-14.5-.2 0-1.5 1.9-2.9 4.2m106 1.3c-.9 2-1.7 4.1-1.7 4.8s.9-.8 2-3.2c2.4-5.2 2.1-6.6-.3-1.6m280 .6c.7.7 1.5 1 1.8.7s-.2-.9-1.2-1.2c-1.4-.6-1.5-.5-.6.5m22.9 5.1-1.7 3.3 2-2.4c1.8-2 2.7-4.1 1.8-4.1-.1 0-1.1 1.5-2.1 3.2m-19.6 6.1c-1.3 2.3-4.6 6.6-7.3 9.4-2.8 2.9-4.5 5.3-3.9 5.3 1.9 0 15.1-17.4 14-18.5-.2-.3-1.5 1.4-2.8 3.8m-258-1.4c0 .6.5 1.3 1 1.6.6.3 1-.1 1-.9 0-.9-.4-1.6-1-1.6-.5 0-1 .4-1 .9m273.4 1.8c-3 4.1-3.9 6.2-1.5 3.3 2.3-2.7 4.4-6 3.8-6-.2 0-1.2 1.2-2.3 2.7m-411.8 0c-.6 1.4-.5 1.5.5.6.7-.7 1-1.5.7-1.8s-.9.2-1.2 1.2m108.5 1.9c0 1.1.3 1.4.6.6.3-.7.2-1.6-.1-1.9-.3-.4-.6.2-.5 1.3m22.8 2.1-2.4 2.8 2.8-2.4c2.5-2.3 3.2-3.1 2.4-3.1-.2 0-1.4 1.2-2.8 2.7M309 414.5c-1.7 4.3-3 7.9-2.8 8.1s1.8-3.1 3.6-7.3c1.7-4.2 3-7.9 2.8-8.1-.2-.1-1.8 3.1-3.6 7.3m113.1-5.9c0 1.1.3 1.4.6.6.3-.7.2-1.6-.1-1.9-.3-.4-.6.2-.5 1.3m31.3 12.4c0 6.9.1 9.7.3 6.2.2-3.4.2-9 0-12.5-.2-3.4-.3-.6-.3 6.3m-14.5-7.3-3.4 3.8 3.8-3.4c2-1.9 3.7-3.6 3.7-3.8 0-.8-.8 0-4.1 3.4m-17.6 1.3c0 2.5.2 3.5.4 2.2.2-1.2.2-3.2 0-4.5-.2-1.2-.4-.2-.4 2.3m295.6.7c-1.3 1.6-1.2 1.7.4.4s2.1-2.1 1.3-2.1c-.2 0-1 .8-1.7 1.7M432.3 421c-3.2 3.9-2.9 4.8.3 1 1.5-1.7 2.5-3.2 2.3-3.4s-1.4.9-2.6 2.4m86.5-1.3c1 .4 1 .8 0 2.1-1.2 1.3-1 1.4 1 .3 1.2-.6 2.2-1.6 2.2-2.1 0-.6-1-1-2.2-.9-1.3 0-1.7.3-1 .6m174.8.8c-1.1.8-1.6 1.5-1 1.5.5 0 1.8-.7 2.8-1.5 1.1-.8 1.6-1.5 1-1.5-.5 0-1.8.7-2.8 1.5m12.4 6.4c-4.2 4.2-5.1 5.3-2.5 3.4 4.4-3.5 10.1-9.1 9.4-9.5-.2-.2-3.3 2.6-6.9 6.1m-198.2-5.2c.7.3 1.6.2 1.9-.1.4-.3-.2-.6-1.3-.5-1.1 0-1.4.3-.6.6m80 0c1.2.2 3 .2 4 0 .9-.3-.1-.5-2.3-.4-2.2 0-3 .2-1.7.4m31 0c1.2.2 3.2.2 4.5 0 1.2-.2.2-.4-2.3-.4s-3.5.2-2.2.4M500.5 423c-1.3.5-1.4.9-.5.9.8 0 2.4-.4 3.5-.9 1.3-.5 1.4-.9.5-.9-.8 0-2.4.4-3.5.9m80.8-.3c.9.2 2.3.2 3 0 .6-.3-.1-.5-1.8-.5-1.6 0-2.2.2-1.2.5m49 0c.9.2 2.5.2 3.5 0 .9-.3.1-.5-1.8-.5s-2.7.2-1.7.5m-55.5 1c.7.3 1.6.2 1.9-.1.4-.3-.2-.6-1.3-.5-1.1 0-1.4.3-.6.6m64 0c1.2.2 3 .2 4 0 .9-.3-.1-.5-2.3-.4-2.2 0-3 .2-1.7.4m-124.9 3-2.4 2.8 2.8-2.4c2.5-2.3 3.2-3.1 2.4-3.1-.2 0-1.4 1.2-2.8 2.7m56.9-2c.7.3 1.6.2 1.9-.1.4-.3-.2-.6-1.3-.5-1.1 0-1.4.3-.6.6m113 0c.7.3 1.6.2 1.9-.1.4-.3-.2-.6-1.3-.5-1.1 0-1.4.3-.6.6M563 426.5c-1.9.7-2.8 1.4-2 1.4s2.9-.6 4.5-1.4c3.9-1.7 2.1-1.8-2.5 0m96.3-.8c.9.2 2.3.2 3 0 .6-.3-.1-.5-1.8-.5-1.6 0-2.2.2-1.2.5m19.5 0c.6.2 1.8.2 2.5 0 .6-.3.1-.5-1.3-.5s-1.9.2-1.2.5m-10.5 1c.9.2 2.3.2 3 0 .6-.3-.1-.5-1.8-.5-1.6 0-2.2.2-1.2.5M303 432c-.7 2.8-1 5.3-.8 5.5.3.3 1-1.8 1.6-4.7.7-2.8 1.1-5.3.8-5.5-.2-.2-.9 1.9-1.6 4.7m183-4c-.9.6-1 1-.3 1 .6 0 1.5-.5 1.8-1 .8-1.2.4-1.2-1.5 0m-64.9 1.6c0 1.1.3 1.4.6.6.3-.7.2-1.6-.1-1.9-.3-.4-.6.2-.5 1.3m58.9.9c-1.4.8-2 1.4-1.5 1.4.6 0 2.1-.6 3.5-1.4s2.1-1.4 1.5-1.4c-.5 0-2.1.6-3.5 1.4m71 .5c-.8.5-1 1-.5 1 .6 0 1.7-.5 2.5-1s1.1-1 .5-1c-.5 0-1.7.5-2.5 1m-45.3 5.1c-1.6 2.1-2.6 3.9-2.4 3.9.7 0 5.9-7.1 5.6-7.5-.2-.2-1.7 1.4-3.2 3.6m-52.4 1.4c0 2.2.2 3 .4 1.7.2-1.2.2-3 0-4-.3-.9-.5.1-.4 2.3M540 436c-.9.6-1 1-.3 1 .6 0 1.5-.5 1.8-1 .8-1.2.4-1.2-1.5 0m152.4 1.6c-1.8 1.4-1.8 1.5.4.4 1.2-.6 2.2-1.3 2.2-1.5 0-.8-.5-.6-2.6 1.1m-230 2c-1.8 1.4-1.8 1.5.4.4 1.2-.6 2.2-1.3 2.2-1.5 0-.8-.5-.6-2.6 1.1m70.6-.1c-1.4.8-2 1.4-1.5 1.4.6 0 2.1-.6 3.5-1.4s2.1-1.4 1.5-1.4c-.5 0-2.1.6-3.5 1.4M301.2 441c0 1.4.2 1.9.5 1.2.2-.6.2-1.8 0-2.5-.3-.6-.5-.1-.5 1.3m325.6-.3c1.2.2 3 .2 4 0 .9-.3-.1-.5-2.3-.4-2.2 0-3 .2-1.7.4m8.5 0c.9.2 2.3.2 3 0 .6-.3-.1-.5-1.8-.5-1.6 0-2.2.2-1.2.5m11.5 0c2.9.2 7.4.2 10 0s.2-.3-5.3-.3-7.6.1-4.7.3m-36 2c.7.3 1.6.2 1.9-.1.4-.3-.2-.6-1.3-.5-1.1 0-1.4.3-.6.6m-112.4 4.4c-1.9 3.8-4.7 11.5-3.8 10.6s6.3-13.7 5.8-13.7c-.2 0-1.1 1.4-2 3.1m102.4-2.4c.7.3 1.6.2 1.9-.1.4-.3-.2-.6-1.3-.5-1.1 0-1.4.3-.6.6m-300.7 1.9c0 1.1.3 1.4.6.6.3-.7.2-1.6-.1-1.9-.3-.4-.6.2-.5 1.3m20.3 7.6c-6.1 6.4-9 9.8-8.2 9.8.2 0 3.7-3.6 7.7-8s7.1-8 6.9-8-3.1 2.8-6.4 6.2m191.8-1.2c-2.3 1.7-4.2 3.3-4.2 3.6 0 .4 5.6-3.4 8.5-5.8 2.3-2-.6-.5-4.3 2.2m69.2-1.4c-1.8 1.4-1.8 1.4.6.3 3.1-1.4 3.6-1.9 2.4-1.9-.6 0-1.9.7-3 1.6m-282.3 2c0 1.1.3 1.4.6.6.3-.7.2-1.6-.1-1.9-.3-.4-.6.2-.5 1.3m28 1c-.6 1.5-.9 2.9-.7 3.2.3.2 1-.8 1.6-2.3s.9-2.9.7-3.1-.9.8-1.6 2.2m268.9-1c5.9.8 14 .8 14 .1 0-.4-3.7-.6-8.2-.6-4.6.1-7.2.3-5.8.5m-6.7 1.1c.9.2 2.3.2 3 0 .6-.3-.1-.5-1.8-.5-1.6 0-2.2.2-1.2.5m-86.4 6-3.4 3.8 3.8-3.4c2-1.9 3.7-3.6 3.7-3.8 0-.8-.8 0-4.1 3.4m-179.2 1.8c-.9 2-1.7 4.1-1.7 4.8s.9-.8 2-3.2c2.4-5.2 2.1-6.6-.3-1.6m169.5-.5c0 1.4.2 1.9.5 1.2.2-.6.2-1.8 0-2.5-.3-.6-.5-.1-.5 1.3m116.9.7c-.1 2.6 1.9 12.6 2.5 12.1.2-.2-.3-3.5-1-7.4-.8-3.8-1.5-5.9-1.5-4.7M298.2 467c0 1.4.2 1.9.5 1.2.2-.6.2-1.8 0-2.5-.3-.6-.5-.1-.5 1.3m10.5 1.2c-3 4.1-6.4 9.7-5.1 8.3 1.6-1.6 8.4-11.5 7.9-11.5-.2 0-1.5 1.5-2.8 3.2m10.4 7.3c-1.2 3.7-2.1 7.2-2 7.9 0 .6 1.1-2.3 2.4-6.4s2.2-7.6 2-7.8-1.3 2.6-2.4 6.3m293.9 1c0 .5.5 1.7 1 2.5s1 1 1 .5c0-.6-.5-1.7-1-2.5s-1-1.1-1-.5M299.5 481c-.3.5-.2 1 .4 1 .5 0 1.3-.5 1.6-1 .3-.6.2-1-.4-1-.5 0-1.3.4-1.6 1m315.5.4c0 1.1 4 8.6 4.5 8.6.3 0-.4-1.9-1.6-4.3-2.3-4.5-2.9-5.4-2.9-4.3m-298.9 6.2c0 1.1.3 1.4.6.6.3-.7.2-1.6-.1-1.9-.3-.4-.6.2-.5 1.3m304.8 4.9c.5 1.1 1.7 2.9 2.6 4l1.6 2-1-2c-.5-1.1-1.7-2.9-2.6-4l-1.6-2zM315 494.1c0 .5 1.1.9 2.5.9s2.5-.2 2.5-.4-1.1-.6-2.5-.8c-1.4-.3-2.5-.1-2.5.3m45.8 1.6c1.2.2 3 .2 4 0 .9-.3-.1-.5-2.3-.4-2.2 0-3 .2-1.7.4m9 1c.7.3 1.6.2 1.9-.1.4-.3-.2-.6-1.3-.5-1.1 0-1.4.3-.6.6m8 1c.7.3 1.6.2 1.9-.1.4-.3-.2-.6-1.3-.5-1.1 0-1.4.3-.6.6m5.5 1c.9.2 2.3.2 3 0 .6-.3-.1-.5-1.8-.5-1.6 0-2.2.2-1.2.5m5.5 1c.7.3 1.6.2 1.9-.1.4-.3-.2-.6-1.3-.5-1.1 0-1.4.3-.6.6m237.2-.3c0 .2.8 1 1.8 1.7 1.5 1.3 1.6 1.2.3-.4s-2.1-2.1-2.1-1.3m-232.2 1.3c.7.3 1.6.2 1.9-.1.4-.3-.2-.6-1.3-.5-1.1 0-1.4.3-.6.6m4 1c.7.3 1.6.2 1.9-.1.4-.3-.2-.6-1.3-.5-1.1 0-1.4.3-.6.6m4 1c.7.3 1.6.2 1.9-.1.4-.3-.2-.6-1.3-.5-1.1 0-1.4.3-.6.6m4 1c.7.3 1.6.2 1.9-.1.4-.3-.2-.6-1.3-.5-1.1 0-1.4.3-.6.6m7 2c.7.3 1.6.2 1.9-.1.4-.3-.2-.6-1.3-.5-1.1 0-1.4.3-.6.6m7.7 2.3c1.1.5 2.7.9 3.5.9.9 0 .8-.4-.5-.9-1.1-.5-2.7-.9-3.5-.9-.9 0-.8.4.5.9m6.5 1.5c0 .8 7.3 3.6 7.8 3 .3-.3.3-.5 0-.5s-2.2-.7-4.2-1.5-3.6-1.3-3.6-1m15 5.9c0 .2.7.7 1.6 1 .8.3 1.2.2.9-.4-.6-1-2.5-1.4-2.5-.6m19 8.6c1.9 1.1 4 1.9 4.5 1.9.6 0-.6-.8-2.5-1.9s-3.9-1.9-4.5-1.9c-.5 0 .6.8 2.5 1.9m-151.2 8.7c20 .2 52.4.2 72 0 19.6-.1 3.3-.2-36.3-.2s-55.7.1-35.7.2m-43.6 3.9c-2.5 2.1-4.6 4.9-5.2 7.2-.8 2.6-1 39.5-.8 118.7l.3 115 .3-116 .2-116 2.3-4c1.3-2.2 4-4.9 6.2-6.2s3.3-2.3 2.4-2.3c-.8 0-3.4 1.6-5.7 3.6m213.8-3.2c0 .2.7.7 1.6 1 .8.3 1.2.2.9-.4-.6-1-2.5-1.4-2.5-.6m-58 1c0 .2.8 1 1.8 1.7 1.5 1.3 1.6 1.2.3-.4s-2.1-2.1-2.1-1.3m120.5 9.6c-.3.6.1.7.9.4 1.8-.7 2.1-1.4.7-1.4-.6 0-1.3.4-1.6 1m-195.7.7c.6.2 1.8.2 2.5 0 .6-.3.1-.5-1.3-.5s-1.9.2-1.2.5m15.5 0c.9.2 2.3.2 3 0 .6-.3-.1-.5-1.8-.5-1.6 0-2.2.2-1.2.5m8.3 1.6c.3 1 .9 1.5 1.2 1.2s0-1.1-.7-1.8c-1-.9-1.1-.8-.5.6m59.6 1.7c0 1.4.2 1.9.5 1.2.2-.6.2-1.8 0-2.5-.3-.6-.5-.1-.5 1.3m-92.4 7.7c5 .2 13.4.2 18.5 0 5-.1.9-.3-9.3-.3s-14.3.2-9.2.3m92.4 2.3c0 1.4.2 1.9.5 1.2.2-.6.2-1.8 0-2.5-.3-.6-.5-.1-.5 1.3m.1 6.5c0 2.2.2 3 .4 1.7.2-1.2.2-3 0-4-.3-.9-.5.1-.4 2.3m-.1 8.5c0 1.4.2 1.9.5 1.2.2-.6.2-1.8 0-2.5-.3-.6-.5-.1-.5 1.3m-.1 8.6c0 1.1.3 1.4.6.6.3-.7.2-1.6-.1-1.9-.3-.4-.6.2-.5 1.3m.1 4.4c0 1.4.2 1.9.5 1.2.2-.6.2-1.8 0-2.5-.3-.6-.5-.1-.5 1.3m0 5c0 1.4.2 1.9.5 1.2.2-.6.2-1.8 0-2.5-.3-.6-.5-.1-.5 1.3m0 13c0 1.4.2 1.9.5 1.2.2-.6.2-1.8 0-2.5-.3-.6-.5-.1-.5 1.3m-2.2 63.7c-2.3 2.4-2.3 2.5-.3 1.5 2.2-1.2 3.8-3 3.1-3.7-.2-.2-1.4.8-2.8 2.2m167 8.1.5 10.7.3-9.9c.1-5.5-.1-10.3-.5-10.7-.4-.5-.6 4-.3 9.9m-176.5-1.7c-5.7 3.9-9.9 7.3-6.5 5.3 6.1-3.5 14.6-9.7 12.8-9.3-.2 0-3 1.8-6.3 4m103.8-2.4c.9.2 2.3.2 3 0 .6-.3-.1-.5-1.8-.5-1.6 0-2.2.2-1.2.5m7.5 0c.6.2 1.8.2 2.5 0 .6-.3.1-.5-1.3-.5s-1.9.2-1.2.5m10 0c.7.3 1.6.2 1.9-.1.4-.3-.2-.6-1.3-.5-1.1 0-1.4.3-.6.6m-87.9 2c-1.3 1.6-1.2 1.7.4.4.9-.7 1.7-1.5 1.7-1.7 0-.8-.8-.3-2.1 1.3m-14.4 9.3c-1.6 1.1-2.5 2-2 2 1 0 6.4-3.9 5.5-4-.3 0-1.8.9-3.5 2m105.6-1c0 .8.4 2.2.9 3 1.2 1.8 1.2.2 0-2.5-.6-1.3-.9-1.5-.9-.5M404 684.1c-1.7 1.3-1.8 1.7-.5 1 3.3-1.7 5.1-3.1 4-3.1-.5 0-2.1 1-3.5 2.1m27 3.4c-.7.9-1.1 1.7-.9 1.9.8.6 23.4 17.2 26.7 19.5 1.7 1.2 3.2 2 3.2 1.7s-6.3-5.1-14-10.6c-7.7-5.6-14.2-10.5-14.5-11s.3-1.3 1.2-1.9c1-.6 1.3-1.1.7-1.1s-1.7.7-2.4 1.5m115.7.6c.7.7 1.5 1 1.8.7s-.2-.9-1.2-1.2c-1.4-.6-1.5-.5-.6.5m48.6 13.9c0 3 .2 4.3.4 2.7.2-1.5.2-3.9 0-5.5-.2-1.5-.4-.2-.4 2.8m-165.6 8.1c.4 1.3.8 1.8 1.1 1 .2-.7-.1-1.8-.6-2.3-.8-.8-.9-.4-.5 1.3m88.6-1.4c14.2.2 37.2.2 51 0 13.9-.1 2.3-.2-25.8-.2-28 0-39.4.1-25.2.2m-54.8 4.7c1.7 1.4 5 4 7.5 5.7 3.5 2.3 3.8 2.5 1.5.5-1.6-1.4-5-4-7.5-5.7-3.5-2.3-3.8-2.5-1.5-.5m-33.2 3.6c0 2.5.2 3.5.4 2.2.2-1.2.2-3.2 0-4.5-.2-1.2-.4-.2-.4 2.3m61.7 4.9c0 6.4-.6 9.1-2.1 9.1-.6 0-3.3-1.7-6.2-3.8-5.8-4.3-7.7-5.5-7.7-5 0 1.3 13 9.7 14.8 9.5 2.1-.1 2.2-.6 2.2-7.9 0-4.3-.2-7.8-.5-7.8s-.5 2.7-.5 5.9M430.4 733c0 6.3.1 8.9.3 5.7.2-3.1.2-8.3 0-11.5-.2-3.1-.3-.5-.3 5.8m0 25.5c0 6 .1 8.4.3 5.2s.2-8.1 0-11-.3-.3-.3 5.8m-.1 15c0 2.2.2 3 .4 1.7.2-1.2.2-3 0-4-.3-.9-.5.1-.4 2.3M261 778.8c0 2 7.2 9 10 9.7 1.8.4 1.4 0-1.2-1.5-2.1-1.1-4.9-3.7-6.3-5.7-1.4-2.1-2.5-3.2-2.5-2.5m159 8.7c-1.4.8-2 1.4-1.4 1.5.5 0 1.9-.7 3-1.5 2.4-1.8 1.6-1.9-1.6 0m-110.2 2.2c20 .2 52.4.2 72 0 19.6-.1 3.3-.2-36.3-.2s-55.7.1-35.7.2"/><path fill="#05a" d="M595.4 175.6c-1.8 1.4-1.8 1.5.4.4 1.2-.6 2.2-1.3 2.2-1.5 0-.8-.5-.6-2.6 1.1M585 182c-.9.6-1 1-.3 1 .6 0 1.5-.5 1.8-1 .8-1.2.4-1.2-1.5 0m14.2 3.5c0 1.6.2 2.2.5 1.2.2-.9.2-2.3 0-3-.3-.6-.5.1-.5 1.8m-22.3 3.2c-1.3 1.6-1.2 1.7.4.4.9-.7 1.7-1.5 1.7-1.7 0-.8-.8-.3-2.1 1.3m-34.8 5.9c0 1.1.3 1.4.6.6.3-.7.2-1.6-.1-1.9-.3-.4-.6.2-.5 1.3m-23.8 16.9c0 3.3.2 4.5.4 2.7s.2-4.5 0-6-.4 0-.4 3.3m40.8.1c0 1.1.3 1.4.6.6.3-.7.2-1.6-.1-1.9-.3-.4-.6.2-.5 1.3M519.2 226c0 1.9.2 2.7.5 1.7.2-.9.2-2.5 0-3.5-.3-.9-.5-.1-.5 1.8m81.9 3.6c0 1.1.3 1.4.6.6.3-.7.2-1.6-.1-1.9-.3-.4-.6.2-.5 1.3M590 255.4c0 .2.7.7 1.6 1 .8.3 1.2.2.9-.4-.6-1-2.5-1.4-2.5-.6M481.3 273c0 2.5.2 3.5.4 2.2.2-1.2.2-3.2 0-4.5-.2-1.2-.4-.2-.4 2.3m-119.4 30.7c-1.3 1.6-1.2 1.7.4.4.9-.7 1.7-1.5 1.7-1.7 0-.8-.8-.3-2.1 1.3m-5 5-2.4 2.8 2.8-2.4c2.5-2.3 3.2-3.1 2.4-3.1-.2 0-1.4 1.2-2.8 2.7m208.1.7c0 .2.9.6 2 .9s1.8.1 1.4-.4c-.5-.9-3.4-1.3-3.4-.5M486 330c-1.2.8-1 1 .8 1 1.3 0 2-.4 1.7-1-.7-1.2-.6-1.2-2.5 0m-20.4 27.5c-.3.8-.1 1.5.4 1.5.6 0 1-.7 1-1.5s-.2-1.5-.4-1.5-.6.7-1 1.5M341.5 364c-1 1.1-1.6 2.2-1.4 2.4s1.2-.7 2.2-2c2.2-2.9 1.7-3.2-.8-.4m110.6 46.6c0 1.1.3 1.4.6.6.3-.7.2-1.6-.1-1.9-.3-.4-.6.2-.5 1.3m217.2 15.1c.9.2 2.3.2 3 0 .6-.3-.1-.5-1.8-.5-1.6 0-2.2.2-1.2.5M481 432c-.9.6-1 1-.3 1 .6 0 1.5-.5 1.8-1 .8-1.2.4-1.2-1.5 0m116.8 22.7c.7.3 1.6.2 1.9-.1.4-.3-.2-.6-1.3-.5-1.1 0-1.4.3-.6.6m5.5 0c.9.2 2.3.2 3 0 .6-.3-.1-.5-1.8-.5-1.6 0-2.2.2-1.2.5M300.2 467c0 1.4.2 1.9.5 1.2.2-.6.2-1.8 0-2.5-.3-.6-.5-.1-.5 1.3M625 501.4c0 .8.5 1.8 1 2.1.6.3 1-.1 1-.9s-.4-1.8-1-2.1c-.5-.3-1 .1-1 .9M261.2 558c0 1.9.2 2.7.5 1.7.2-.9.2-2.5 0-3.5-.3-.9-.5-.1-.5 1.8m-.1 8.6c0 1.1.3 1.4.6.6.3-.7.2-1.6-.1-1.9-.3-.4-.6.2-.5 1.3m0 4c0 1.1.3 1.4.6.6.3-.7.2-1.6-.1-1.9-.3-.4-.6.2-.5 1.3m0 4c0 1.1.3 1.4.6.6.3-.7.2-1.6-.1-1.9-.3-.4-.6.2-.5 1.3m.1 7.4c0 1.4.2 1.9.5 1.2.2-.6.2-1.8 0-2.5-.3-.6-.5-.1-.5 1.3m-.1 27.6c0 1.1.3 1.4.6.6.3-.7.2-1.6-.1-1.9-.3-.4-.6.2-.5 1.3m0 4c0 1.1.3 1.4.6.6.3-.7.2-1.6-.1-1.9-.3-.4-.6.2-.5 1.3m0 31c0 1.1.3 1.4.6.6.3-.7.2-1.6-.1-1.9-.3-.4-.6.2-.5 1.3m0 6c0 1.1.3 1.4.6.6.3-.7.2-1.6-.1-1.9-.3-.4-.6.2-.5 1.3m.1 4.4c0 1.4.2 1.9.5 1.2.2-.6.2-1.8 0-2.5-.3-.6-.5-.1-.5 1.3m0 13c0 1.9.2 2.7.5 1.7.2-.9.2-2.5 0-3.5-.3-.9-.5-.1-.5 1.8m231 0c0 1.9.2 2.7.5 1.7.2-.9.2-2.5 0-3.5-.3-.9-.5-.1-.5 1.8m24.6 3.7c.7.3 1.6.2 1.9-.1.4-.3-.2-.6-1.3-.5-1.1 0-1.4.3-.6.6m-255.7 42.9c0 1.1.3 1.4.6.6.3-.7.2-1.6-.1-1.9-.3-.4-.6.2-.5 1.3m229.2 2.4c0 2.5.2 3.5.4 2.2.2-1.2.2-3.2 0-4.5-.2-1.2-.4-.2-.4 2.3m-229.2 28.6c0 1.1.3 1.4.6.6.3-.7.2-1.6-.1-1.9-.3-.4-.6.2-.5 1.3m.2 12.9c0 2.7.2 3.8.4 2.2.2-1.5.2-3.7 0-5-.2-1.2-.4 0-.4 2.8m6.7 26.9c0 .2.7.7 1.6 1 .8.3 1.2.2.9-.4-.6-1-2.5-1.4-2.5-.6"/><path fill="#d48000" d="M623.8 532.7c.7.3 1.6.2 1.9-.1.4-.3-.2-.6-1.3-.5-1.1 0-1.4.3-.6.6m69 0c.6.2 1.8.2 2.5 0 .6-.3.1-.5-1.3-.5s-1.9.2-1.2.5m69 0c.7.3 1.6.2 1.9-.1.4-.3-.2-.6-1.3-.5-1.1 0-1.4.3-.6.6m4 0c.6.2 1.8.2 2.5 0 .6-.3.1-.5-1.3-.5s-1.9.2-1.2.5m-148.9 3c-1.3 1.6-1.2 1.7.4.4s2.1-2.1 1.3-2.1c-.2 0-1 .8-1.7 1.7m161.7 5.6c.3 1 .9 1.5 1.2 1.2s0-1.1-.7-1.8c-1-.9-1.1-.8-.5.6m1.7 6.2c0 2.2.2 3 .4 1.7.2-1.2.2-3 0-4-.3-.9-.5.1-.4 2.3m-.1 27.5c0 1.4.2 1.9.5 1.2.2-.6.2-1.8 0-2.5-.3-.6-.5-.1-.5 1.3m-222.1 16.3c4.8 3.3 5.9 3.9 5.9 3.4 0-.6-7.5-5.7-8.4-5.7-.5 0 .6 1 2.5 2.3m62.9 25.1c0 .3.9 1 2 1.6s2 .8 2 .6c0-.3-.9-1-2-1.6s-2-.8-2-.6m-20 5c0 .2.7.7 1.6 1 .8.3 1.2.2.9-.4-.6-1-2.5-1.4-2.5-.6m-144.2 31.2c-3.8 2-3.6 2.8.2.9 1.7-.9 3-1.8 3-2 0-.7-.1-.6-3.2 1.1m153.5 1.9c-.3.9-.3 1.8-.1 2.1.3.3.8-.4 1.1-1.6.6-2.3-.1-2.7-1-.5m-81.3.5-24.5.6 24.2.2c15.3.1 24.4-.2 24.8-.8.3-.6.5-.9.3-.8s-11.3.5-24.8.8m51.9 3.1-2.4 2 2.8-1.7c1.5-.9 2.7-1.8 2.7-2 0-.8-.8-.4-3.1 1.7m29.4 34.4c0 3.8.2 5.3.4 3.2.2-2 .2-5.2 0-7-.2-1.7-.4-.1-.4 3.8m-.1 13.5c0 1.4.2 1.9.5 1.2.2-.6.2-1.8 0-2.5-.3-.6-.5-.1-.5 1.3m-.1 7.6c0 1.1.3 1.4.6.6.3-.7.2-1.6-.1-1.9-.3-.4-.6.2-.5 1.3m170 0c0 1.1.3 1.4.6.6.3-.7.2-1.6-.1-1.9-.3-.4-.6.2-.5 1.3m-169.8 9.9c0 2.2.2 3 .4 1.7.2-1.2.2-3 0-4-.3-.9-.5.1-.4 2.3m-.2 6.1c0 1.1.3 1.4.6.6.3-.7.2-1.6-.1-1.9-.3-.4-.6.2-.5 1.3m.2 6.4c0 2.5.2 3.5.4 2.2.2-1.2.2-3.2 0-4.5-.2-1.2-.4-.2-.4 2.3m-.1 8c0 1.9.2 2.7.5 1.7.2-.9.2-2.5 0-3.5-.3-.9-.5-.1-.5 1.8m0 8c0 1.9.2 2.7.5 1.7.2-.9.2-2.5 0-3.5-.3-.9-.5-.1-.5 1.8m-.1 7.6c0 1.1.3 1.4.6.6.3-.7.2-1.6-.1-1.9-.3-.4-.6.2-.5 1.3m170 1c0 1.1.3 1.4.6.6.3-.7.2-1.6-.1-1.9-.3-.4-.6.2-.5 1.3m-170 7c0 1.1.3 1.4.6.6.3-.7.2-1.6-.1-1.9-.3-.4-.6.2-.5 1.3m.1 6.9c0 1.6.2 2.2.5 1.2.2-.9.2-2.3 0-3-.3-.6-.5.1-.5 1.8m170 .5c0 1.4.2 1.9.5 1.2.2-.6.2-1.8 0-2.5-.3-.6-.5-.1-.5 1.3M611 778.8c0 .7 1.5 2.7 3.3 4.5 1.7 1.8 2.2 2.1 1.1.7-1.2-1.4-2.6-3.4-3.2-4.5s-1.2-1.4-1.2-.7m168 0c0 .6-1.4 2.8-3.2 4.9-2.9 3.4-2.9 3.5-.4 1.3 3.1-2.8 5-5.9 4.2-6.8-.3-.3-.6 0-.6.6m-9.5 9.2c-.3.5-.2 1 .4 1 .5 0 1.3-.5 1.6-1 .3-.6.2-1-.4-1-.5 0-1.3.4-1.6 1m-143.7 1.7c1.2.2 3.2.2 4.5 0 1.2-.2.2-.4-2.3-.4s-3.5.2-2.2.4m8.5 0c.9.2 2.3.2 3 0 .6-.3-.1-.5-1.8-.5-1.6 0-2.2.2-1.2.5m8.5 0c1.2.2 3.2.2 4.5 0 1.2-.2.2-.4-2.3-.4s-3.5.2-2.2.4m9 0c1.2.2 3 .2 4 0 .9-.3-.1-.5-2.3-.4-2.2 0-3 .2-1.7.4m12.5 0c3.2.2 8.1.2 11 0s.3-.3-5.8-.3c-6 0-8.4.1-5.2.3m21.5 0c2.3.2 5.9.2 8 0 2-.2.1-.4-4.3-.4s-6.1.2-3.7.4m21.5 0c5.3.2 14.1.2 19.5 0 5.3-.1.9-.3-9.8-.3s-15.1.2-9.7.3m37.5 0c4.6.2 11.8.2 16 0 4.2-.1.5-.3-8.3-.3s-12.3.2-7.7.3"/><g fill="#ff8000" stroke-width="0"><path d="M628.3 532.7c1.5.2 3.9.2 5.5 0 1.5-.2.2-.4-2.8-.4s-4.3.2-2.7.4m19.5 0c4.5.2 11.9.2 16.5 0 4.5-.1.8-.3-8.3-.3s-12.8.2-8.2.3m30 0c2.9.2 7.4.2 10 0s.2-.3-5.3-.3-7.6.1-4.7.3m19 0c.6.2 1.8.2 2.5 0 .6-.3.1-.5-1.3-.5s-1.9.2-1.2.5m8 0c2.3.2 6.1.2 8.5 0 2.3-.2.4-.4-4.3-.4s-6.6.2-4.2.4m20.5 0c4.2.2 11.2.2 15.5 0 4.2-.1.7-.3-7.8-.3s-12 .2-7.7.3m29 0c.9.2 2.3.2 3 0 .6-.3-.1-.5-1.8-.5-1.6 0-2.2.2-1.2.5m17.2 2.9c2.1 1.4 4.6 3.5 5.7 4.7l1.8 2.2-1-2.5c-.6-1.4-2.9-3.5-5-4.8-5.3-3-6.2-2.8-1.5.4M613 540.5c-.7.9-1.1 1.7-.9 2 .3.2 1-.5 1.7-1.5 1.4-2.4 1-2.6-.8-.5m58 5.6c-.7 1.1-.9 2.3-.7 2.6.3.2 1-.5 1.7-1.6 1-2 1.8-2.1 23.3-2.1 23.4 0 24.7.2 24.7 4.5 0 2.6-1.8 4.5-4.2 4.5-1 0-1.8.4-1.8.9 0 1.9 6.2-1.1 7.2-3.5.8-1.8.7-2.9-.6-4.9L719 544h-23.5c-22.7 0-23.5.1-24.5 2.1m-60.8 4.4c0 1.6.2 2.2.5 1.2.2-.9.2-2.3 0-3-.3-.6-.5.1-.5 1.8"/><path d="M670 552.2c0 .9 1.4 2.1 3.1 2.7 4.1 1.4 39.9 1.5 39.9.1 0-.6-7.6-.9-20.2-.9-18.2 0-20.3-.1-21.5-1.7-1.1-1.5-1.3-1.6-1.3-.2M780.4 563c0 5.8.1 8.1.3 5.2.2-2.8.2-7.6 0-10.5-.2-2.8-.3-.5-.3 5.3m-170.2-6c0 1.9.2 2.7.5 1.7.2-.9.2-2.5 0-3.5-.3-.9-.5-.1-.5 1.8m.2 27c0 11.8.2 16.7.3 10.7.2-5.9.2-15.5 0-21.5-.1-5.9-.3-1-.3 10.8m170 16.5c0 13.2.2 18.5.3 11.7.2-6.8.2-17.6 0-24-.1-6.4-.3-.9-.3 12.3m-225.2 3.7L555 616h-52c-60.8 0-56.1-.9-55.9 10.7.1 7.5.5 6.9 1.7-2.2.7-5.9.7-6 4.3-6.6 2-.3 25.8-.6 52.9-.7s49.5-.3 49.7-.5c.2-.3.2-5.8 0-12.3l-.3-11.9zm8.8-8.8c0 .3 7.8 6 17.3 12.7 9.4 6.7 17.8 12.6 18.5 13.2.8.6 1.2.6 1.2-.2 0-.6-1.8-2-3.9-3.1-2.2-1-4.1-2.3-4.3-2.8-.1-.4-2.5-2.3-5.3-4.1-2.7-1.9-9.2-6.3-14.2-9.8-5.1-3.5-9.3-6.2-9.3-5.9m47 11.8c0 1.1 1.3 2.4 6.3 6.1 5.1 3.9 4.6 2.9-1.3-2.5-2.7-2.5-5-4.1-5-3.6m13.7 11.2c.9 1.5 14 11.6 15 11.6 1.1 0-6.8-6.9-11.4-10.1-2.4-1.6-4-2.3-3.6-1.5m-22.7 3.9c0 .2 2.9 2.4 6.5 4.8s6.5 4.9 6.5 5.5c0 1.2-1.4 2.3-18.5 13.9-7.1 4.8-13.4 9.2-14 9.8-2.1 2 4.4-1.8 12.8-7.7 4.8-3.4 9.6-6.6 10.5-7.1 8.7-5.2 12.5-9 10.5-10.4-1.2-.8-11.5-7.5-13-8.5-.7-.4-1.3-.5-1.3-.3m178.4 30.2c0 15.4.2 21.6.3 13.7.2-7.9.2-20.5 0-28-.1-7.5-.3-1.1-.3 14.3M629 640c-5.2 3.8-11.2 8.1-13.2 9.6s-4 3.4-4.3 4.3c-.4 1.1 0 1 1.7-.5 3.7-3.3 10.2-8.1 20.1-14.8 5.6-3.8 7.7-5.7 6-5.5-.4 0-5.1 3.2-10.3 6.9m-181.9 4.8c0 6.2.5 11 .9 10.7.8-.5.2-20.5-.6-21.4-.2-.3-.4 4.6-.3 10.7m35.4-6.7c-15.7 8-25 13.1-26 14-1.7 1.7 7.5-2.8 25.4-12.3 4.8-2.5 8.7-3.9 11.2-4 2.2 0 3.9-.4 3.9-.9 0-2.2-7.1-.6-14.5 3.2m17-.1c1 1.1 2 2 2.2 2s-.1-.9-.7-2-1.6-2-2.2-2-.3.9.7 2m2.6 8.2c0 3.1.4 6 .9 6.3.6.4.8 1 .5 1.5s10.5.8 24.2.7l24.8-.1-23.4-.3c-21.8-.3-26.9-.9-25.7-3.2.2-.3 0-2.9-.4-5.6l-.7-5zm-51.2 8.8-2.4 2.1 3.3-1.6c3.1-1.5 4.1-2.5 2.3-2.5-.5 0-1.9.9-3.2 2m104.4 8.5c0 3.8.2 5.3.4 3.2.2-2 .2-5.2 0-7-.2-1.7-.4-.1-.4 3.8m23.2-5.3c-1.1.6-3.6 2.4-5.6 3.9-2 1.6-3.8 2.6-4.1 2.3-.3-.2-1.1.3-1.9 1.3-1.2 1.5-1.2 1.6.4 1 2.1-.8 13.7-8.6 13.7-9.2 0-.7-.2-.6-2.5.7m31.9 10.8c0 6.9.1 9.7.3 6.2.2-3.4.2-9 0-12.5-.2-3.4-.3-.6-.3 6.3m-48-.6c-1 .8-1.7 1.7-1.4 1.9.3.3 1.4-.1 2.4-.9 1.1-.7 1.7-1.6 1.5-1.9-.3-.3-1.4.2-2.5.9m217.9 16.1c0 2.2.2 3 .4 1.7.2-1.2.2-3 0-4-.3-.9-.5.1-.4 2.3m-170.1-.5c0 1.4.2 1.9.5 1.2.2-.6.2-1.8 0-2.5-.3-.6-.5-.1-.5 1.3m170.1 13c0 4.7.2 6.6.4 4.2.2-2.3.2-6.1 0-8.5-.2-2.3-.4-.4-.4 4.3m-.2 10.6c0 1.1.3 1.4.6.6.3-.7.2-1.6-.1-1.9-.3-.4-.6.2-.5 1.3m-170.1 9c0 .8.5 1.2 1 .9.6-.4.8-1.1.5-1.6-.9-1.4-1.5-1.1-1.5.7m170.4 12.9c0 8.2.2 11.5.3 7.2.2-4.3.2-11 0-15-.1-4-.3-.5-.3 7.8m-.1 22.5c0 4.1.2 5.8.4 3.7.2-2 .2-5.4 0-7.5-.2-2-.4-.3-.4 3.8m-170.2 4.6c0 1.1.3 1.4.6.6.3-.7.2-1.6-.1-1.9-.3-.4-.6.2-.5 1.3m.1 6.9c0 1.6.2 2.2.5 1.2.2-.9.2-2.3 0-3-.3-.6-.5.1-.5 1.8m170.1 2c0 2.2.2 3 .4 1.7.2-1.2.2-3 0-4-.3-.9-.5.1-.4 2.3m-170.2 5.1c0 1.1.3 1.4.6.6.3-.7.2-1.6-.1-1.9-.3-.4-.6.2-.5 1.3M613 781c.6 1.1 1.3 2 1.6 2 .2 0 0-.9-.6-2s-1.3-2-1.6-2c-.2 0 0 .9.6 2m4.9 4.9c1.3 1.2 2.8 2.1 3.4 2.1 1.2 0 1.1 0-2.8-2.4l-3-1.7zm154.7-.4c-1.1.8-1.5 1.5-.9 1.5s1.6-.7 2.3-1.5c1.6-1.9 1.1-1.9-1.4 0m-6.8 3.2c.6.2 1.8.2 2.5 0 .6-.3.1-.5-1.3-.5s-1.9.2-1.2.5m-127 1c.7.3 1.6.2 1.9-.1.4-.3-.2-.6-1.3-.5-1.1 0-1.4.3-.6.6"/></g><path fill="#d4aa00" d="M777.7 547.7c-1 .9-.9 2.3.1 2.3.5 0 .9-.7.9-1.5 0-1.7-.1-1.8-1-.8m-.5 24.1c0 8.4.2 15.1.5 14.8.9-.8 1.2-23.1.4-26.6-.6-2.3-.9 1.7-.9 11.8m0 28.3c-.1 6.4.3 9.7.9 9.3 1.1-.7 1.1-18.2-.1-18.9-.4-.2-.7 4.1-.8 9.6m-215.8-1.5c.2.9 1.3 1.9 2.6 2.1s2.2.2 1.9.1c-.2-.2-1.4-1.1-2.6-2.1-2-1.8-2.1-1.8-1.9-.1m54.1 11.4c.3.5.8 1 1.1 1 .2 0 .4-.5.4-1 0-.6-.5-1-1.1-1-.5 0-.7.4-.4 1m161.7 18.4c0 8 .2 14.8.6 15 .9.5.9-28 0-28.9-.3-.3-.6 5.9-.6 13.9M631.5 640c-.3.5-.1 1 .4 1 .6 0 1.1-.5 1.1-1 0-.6-.2-1-.4-1-.3 0-.8.4-1.1 1m145.6 31.9c0 14.9.3 27.2.8 27.5.9.6.9-53-.1-53.9-.3-.4-.6 11.5-.7 26.4m-153.8-24.4c0 .8.4 1.5.9 1.5.4 0 .8-.4.8-.9 0-.6-.4-1.2-.8-1.5-.5-.3-.9.1-.9.9m-172 5.2c0 .7.4 1.3.7 1.3.4 0 1.2-.6 1.8-1.3.8-1 .6-1.3-.7-1.3-1 0-1.8.6-1.8 1.3m108.1 8.4c-.3.6-.2 1.5.3 2s.9.1.9-1.1c0-2.3-.2-2.4-1.2-.9m-1.1 5.1c.1.7-.2 1.2-.8 1.1-.5-.1-1.1.9-1.1 2.3-.2 2.3-.1 2.3 2.9.8 2.1-1.1 2.6-1.8 1.7-2.4-.7-.4-.9-1.3-.6-1.9.4-.6 0-1.1-.8-1.1-.9 0-1.5.6-1.3 1.2m53.8 5.4c0 1.1.3 1.4.6.6.3-.7.2-1.6-.1-1.9-.3-.4-.6.2-.5 1.3m-56.3 2.1c.7.3 1.6.2 1.9-.1.4-.3-.2-.6-1.3-.5-1.1 0-1.4.3-.6.6m56.3 10.9c0 1.1.3 1.4.6.6.3-.7.2-1.6-.1-1.9-.3-.4-.6.2-.5 1.3m3 18c0 1.1.3 1.4.6.6.3-.7.2-1.6-.1-1.9-.3-.4-.6.2-.5 1.3m162.1 11.3c-.2 8.6.1 13 .8 12.6 1.1-.7 1.2-20.9.1-24-.4-1-.8 4.1-.9 11.4m.1 27.1c-.1 7.2.2 13 .7 13 1 0 1.2-24.7.2-25.4-.5-.3-.9 5.3-.9 12.4M613 736.2c0 .4.4.8.9.8.6 0 1.2-.4 1.5-.8.3-.5-.1-.9-.9-.9s-1.5.4-1.5.9m164.9 19c-.7 1.9-.8 6.9-.2 6.5.9-.6 1.7-6.7.8-6.7-.3 0-.5.1-.6.2m-.2 8.5c-1 .9-.9 5.1.1 5.7.4.2.7-1.1.7-3s0-3.4-.1-3.4c0 0-.4.3-.7.7m.2 7.5c-.5 1.8-.6 3.8-.1 3.4.7-.8 1.2-3.6.6-3.6-.2 0-.4.1-.5.2M621 785.4c0 .2.7.7 1.6 1 .8.3 1.2.2.9-.4-.6-1-2.5-1.4-2.5-.6m22 0c0 .2.8 1 1.8 1.7 1.5 1.3 1.6 1.2.3-.4s-2.1-2.1-2.1-1.3m67.8.3c.7.3 1.6.2 1.9-.1.4-.3-.2-.6-1.3-.5-1.1 0-1.4.3-.6.6m29.7.4c-.4.6-.4 1.3-.1 1.6.3.4.6.1.6-.5 0-.7.5-1.2 1.1-1.2.5 0 .7.4.4 1-.9 1.5.1 1.2 1.5-.5 1-1.3.9-1.5-.8-1.5-1.2 0-2.4.5-2.7 1.1m6.9-.2c.4.5 0 1.2-.6 1.5-.7.3.4.4 2.4.3 2.1 0 3.9-.6 4.2-1.2.5-1.5-2.7-1.5-3.6-.1-.5.8-.8.7-.8-.2 0-.6-.5-1.2-1.1-1.2-.5 0-.8.4-.5.9m9.6-.1c2.3.4 2.4.5.5 1.3-1.9.7-1.9.8.1.8 1.2.1 2.4-.6 2.8-1.4.4-1.2-.2-1.5-2.7-1.4-2.8.2-2.9.2-.7.7m9 .2c0 .6.7 1 1.5 1s1.5-.2 1.5-.4-.7-.6-1.5-1c-.8-.3-1.5-.1-1.5.4m-112 1c-.9.6-1 1-.3 1 .6 0 1.5-.5 1.8-1 .8-1.2.4-1.2-1.5 0m38.8.7c.7.3 1.6.2 1.9-.1.4-.3-.2-.6-1.3-.5-1.1 0-1.4.3-.6.6m16 0c.6.2 1.8.2 2.5 0 .6-.3.1-.5-1.3-.5s-1.9.2-1.2.5m25 0c.6.2 1.8.2 2.5 0 .6-.3.1-.5-1.3-.5s-1.9.2-1.2.5"/><g fill="#fa0" stroke-width="0"><path d="M622.1 533.9c-1.1.7-1.1.9 0 1.4.8.4.3.4-1.1.2-3.1-.6-4.9.8-7.7 6.1-2.2 4.1-2.3 5-2.3 34.1 0 25.2.2 30.2 1.5 32 .9 1.3 2.2 2 3 1.7 1.3-.6 2 1.1 1.6 3.9 0 .4.2.6.7.5.8-.3 15.4 9.1 16.4 10.6.4.5.4 1.4.1 2-.3.5-.2.6.4.3 1.3-.8 5.5 2.2 4.8 3.4-.4.5 0 .9.7.9 1 0 1 .2 0 .9-.8.4-1.3 1.1-1.3 1.5 0 .3-.2 1.3-.5 2.1-.5 1.2-.9 1.3-2.1.4-.8-.7-1.3-.8-1.1-.3.8 2.6-6.1 7.3-9.5 6.5-.5-.1-.6.3-.3.8.4.5.2 1.3-.4 1.6-.6.4-.8 1.5-.5 2.6.4 1.1.2 1.9-.4 1.9s-1-.3-.8-.8c.1-.4-.2-.7-.8-.7s-.9.3-.8.7c.2.4-.3.5-1 .2-.8-.3-3.2 1.2-5.5 3.2l-4.2 3.6v121l2.3 3.9c1.5 2.8 3.7 4.7 7.3 6.5l5.1 2.5 71.4-.3 71.4-.3 3.5-2.4c1.9-1.3 4.4-3.5 5.5-5 2-2.6 2-4.2 2-120.1s0-117.5-2-120.2c-1.1-1.4-3.8-3.8-6-5.2l-3.9-2.6h-72.1c-39.6 0-72.6.4-73.4.9m98.5 12.6c2.1 3.2 1 6.3-2.9 8-4.2 1.7-39.7 2.1-44.5.4-2.6-.9-3.2-1.6-3.2-4.1 0-1.6.5-3.8 1-4.9 1-1.8 2.4-1.9 24.5-1.9H719zm58.1 2c0 .8-.4 1.5-.9 1.5-1 0-1.1-1.4-.1-2.3.9-1 1-.9 1 .8m-.2 26.3c-.2 6.3-.5 11.6-.8 11.8-.3.3-.5-6.4-.5-14.8 0-10.1.3-14.1.9-11.8.4 1.9.6 8.6.4 14.8m.4 25.1c.1 5.1-.2 9.2-.8 9.5-.6.4-1-2.9-.9-9.3.2-12.3 1.5-12.5 1.7-.2m-.4 29.6c0 7.9-.3 14.1-.7 13.9s-.6-7-.6-15 .3-14.2.6-13.9c.4.4.7 7.1.7 15m.1 43.5c0 14.8-.3 26.7-.7 26.4-.5-.3-.8-12.6-.8-27.5.1-14.9.4-26.8.7-26.4.4.4.7 12.7.8 27.5m-165.9-.8c-.3.8-.6.5-.6-.6-.1-1.1.2-1.7.5-1.3.3.3.4 1.2.1 1.9m0 13c-.3.8-.6.5-.6-.6-.1-1.1.2-1.7.5-1.3.3.3.4 1.2.1 1.9m3 18c-.3.8-.6.5-.6-.6-.1-1.1.2-1.7.5-1.3.3.3.4 1.2.1 1.9m163.2 12c0 6.1-.4 11-.9 11.3-.7.4-1-4-.8-12.6.2-15.5 1.6-14.4 1.7 1.3m0 26.4c-.1 6.8-.5 12.4-.9 12.4-.5 0-.8-5.8-.7-13 0-7.1.4-12.7.9-12.4s.8 6.1.7 13m-163.5-5.4c-.3.4-.9.8-1.5.8-.5 0-.9-.4-.9-.8 0-.5.7-.9 1.5-.9s1.2.4.9.9m163.4 21.9c-.1 1.7-.6 3.3-1.1 3.6s-.6-1-.4-2.8c.6-4 .6-3.9 1.2-3.9.3 0 .4 1.4.3 3.1m-.3 8.3c0 1.9-.3 3.2-.7 3-1.3-.9-.8-6.4.6-6.4.1 0 .1 1.5.1 3.4m.1 6.1c-.1.8-.5 1.7-.8 2.1-.5.4-.4-1.6.1-3.4.3-.9.9.1.7 1.3M623.5 786c.3.6-.1.7-.9.4-1.8-.7-2.1-1.4-.7-1.4.6 0 1.3.4 1.6 1m21.6.7c1.3 1.6 1.2 1.7-.3.4-1-.7-1.8-1.5-1.8-1.7 0-.8.8-.3 2.1 1.3m67.6-1.1c-.3.3-1.2.4-1.9.1-.8-.3-.5-.6.6-.6 1.1-.1 1.7.2 1.3.5m31.3.9c-1.4 1.7-2.4 2-1.5.5.3-.6.1-1-.4-1-.6 0-1.1.5-1.1 1.2 0 .6-.3.9-.6.5-1.1-1 .6-2.7 2.8-2.7 1.7 0 1.8.2.8 1.5m5-.3c0 .9.3 1 .8.2.9-1.4 4.1-1.4 3.6.1-.3.6-2.1 1.2-4.2 1.2-2 .1-3.1 0-2.4-.3.6-.3 1-1 .6-1.5-.3-.5 0-.9.5-.9.6 0 1.1.6 1.1 1.2m11.4.3c-.4.8-1.6 1.5-2.8 1.4-2 0-2-.1-.1-.8 1.9-.8 1.8-.9-.5-1.3-2.2-.5-2.1-.5.7-.7 2.5-.1 3.1.2 2.7 1.4m8.6.1c0 .2-.7.4-1.5.4s-1.5-.4-1.5-1c0-.5.7-.7 1.5-.4.8.4 1.5.8 1.5 1m-113.5.4c-.3.5-1.2 1-1.8 1-.7 0-.6-.4.3-1 1.9-1.2 2.3-1.2 1.5 0m39.2.6c-.3.3-1.2.4-1.9.1-.8-.3-.5-.6.6-.6 1.1-.1 1.7.2 1.3.5m16.6.1c-.7.2-1.9.2-2.5 0-.7-.3-.2-.5 1.2-.5s1.9.2 1.3.5m25 0c-.7.2-1.9.2-2.5 0-.7-.3-.2-.5 1.2-.5s1.9.2 1.3.5"/><path d="m555.8 604 .4 13h-9.4c-5.1.1-27.4.1-49.6.2-22.1.1-41.9.4-44 .7-3.6.6-3.7.7-4.5 6.1-.8 5.9-.9 16.1-.2 24.9.2 3.1-.1 6.1-.7 6.8-.7.9-.7 1.3 0 1.3 1.3 0 4.3-4 3.7-4.9-.2-.4.5-.7 1.5-.7s1.6.4 1.4.8c-.7 1.1 1 1 2.1-.1 1-.9 10.6-6.1 26-14 7.6-3.9 14.5-5.4 14.5-3.1 0 .5.7 1 1.5 1 2.3 0 4.4 5.1 4.8 11.9l.3 6.2 25.2-.1c23.5-.1 25.2.1 26.1 1.8 1.2 2.3 1.7 12.3.7 14.3-.4.8.1.3 1.2-1.1 1.1-1.3 1.8-2.8 1.6-3.2-.3-.4.2-.8 1-.8 1 0 1.3.6 1 1.5-.7 1.8 2.1 2.1 3.2.4.4-.8.9-.7 1.5.2.7 1.1.9 1 .9-.4 0-.9.5-1.8 1-1.8 2.2-.3 2.6-.5 4.7-2 1.3-.9 2-1.9 1.5-2.4-.4-.5-.2-.5.4-.2s2-.1 3-1.1c1.1-.9 2.6-1.8 3.3-2 2-.4 29.3-19.1 31.3-21.3.9-1.1 2.1-1.9 2.5-1.9 2.3.3.9-2.8-2.2-4.9-1.9-1.3-3.2-2.8-2.8-3.4.3-.6.1-.7-.5-.3-1.5.9-12.3-6.3-11.5-7.7.3-.6.1-.7-.5-.3-1.3.8-11.4-6.2-10.7-7.4.3-.4-.3-.7-1.3-.6-.9 0-1.6-.5-1.4-1.2.2-1-.2-1-1.8-.2-1.2.6-1.9.7-1.8.1.3-1-21-17.1-22.7-17.1-.6 0-.9 4.6-.7 13m10.1-3.2c.3.1-.6.1-1.9-.1s-2.4-1.2-2.6-2.1c-.2-1.7-.1-1.7 1.9.1 1.2 1 2.4 1.9 2.6 2.1m-5.3 61.2c0 1.2-.4 1.6-.9 1.1s-.6-1.4-.3-2c1-1.5 1.2-1.4 1.2.9"/></g><path fill="#005580" d="M492.3 657.5c0 2.2.2 3 .4 1.7.2-1.2.2-3 0-4-.3-.9-.5.1-.4 2.3m-.2 6.1c0 1.1.3 1.4.6.6.3-.7.2-1.6-.1-1.9-.3-.4-.6.2-.5 1.3m42.2 8.1c.9.2 2.3.2 3 0 .6-.3-.1-.5-1.8-.5-1.6 0-2.2.2-1.2.5"/></svg>